<svg xmlns="http://www.w3.org/2000/svg" width="199.525" height="115.671" viewBox="0 0 199.525 115.671">
  <g id="Group_501" data-name="Group 501" transform="translate(-20341.932 5430.24)">
    <rect id="Rectangle_135" data-name="Rectangle 135" width="5.215" height="90.886" transform="translate(20448.709 -5406.954)" fill="#545b6e" stroke="#545b6e" stroke-width="3"/>
    <rect id="Rectangle_136" data-name="Rectangle 136" width="5.215" height="90.886" transform="translate(20430.83 -5406.954)" fill="#545b6e" stroke="#545b6e" stroke-width="3"/>
    <path id="Path_204" data-name="Path 204" d="M212.433,6.1H14.893c-.5,0-.993.508-.993,1.355v7.114c0,.678.372,1.355.993,1.355h3.849c1.738,0,3.228,1.524,3.725,3.9C23.585,26.257,27.558,31,32.276,31h162.9c4.718,0,8.567-4.573,9.809-10.841.5-2.371,2.111-4.065,3.849-4.065h3.6c.5,0,.993-.508.993-1.355V7.455C213.426,6.778,212.929,6.1,212.433,6.1Z" transform="translate(20328.031 -5436.34)" fill="#545b6e"/>
  </g>
</svg>
