<svg xmlns="http://www.w3.org/2000/svg" width="284.211" height="307.049" viewBox="0 0 284.211 307.049">
  <g id="Group_502" data-name="Group 502" transform="translate(-20299.215 5369.574)">
    <ellipse id="Ellipse_53" data-name="Ellipse 53" cx="3.653" cy="3.653" rx="3.653" ry="3.653" transform="translate(20508.223 -5277.955)" fill="#fff"/>
    <g id="Group_463" data-name="Group 463" transform="translate(20299.215 -5369.574)">
      <g id="Group_457" data-name="Group 457" transform="translate(0)">
        <ellipse id="Ellipse_45" data-name="Ellipse 45" cx="91.334" cy="91.334" rx="91.334" ry="91.334" transform="translate(50.689 51.646)" fill="#545b6e"/>
        <path id="Path_193" data-name="Path 193" d="M292.848,337.086,277.737,168.2v-.664a128.035,128.035,0,0,0-256.068.166v.664L8.716,337.086a9.209,9.209,0,0,0,9.133,9.964h265.7A9.242,9.242,0,0,0,292.848,337.086Zm-142.98-67.753a80.042,80.042,0,1,1,80.042-80.042A80.085,80.085,0,0,1,149.869,269.332Z" transform="translate(-8.676 -40)" fill="#e69d42"/>
        <path id="Path_194" data-name="Path 194" d="M132.413,66.7a97.313,97.313,0,1,0,97.313,97.313A97.342,97.342,0,0,0,132.413,66.7Zm0,184.994a80.042,80.042,0,1,1,80.042-80.042A80.085,80.085,0,0,1,132.413,251.694Z" transform="translate(8.78 -22.361)" fill="#545b6e"/>
        <path id="Path_195" data-name="Path 195" d="M190.933,183.459h0a2.668,2.668,0,0,1,3.321-1.661l11.126,3.653a80.723,80.723,0,0,0,0-45.833l-11.126,3.653a2.668,2.668,0,0,1-3.321-1.661h0a2.668,2.668,0,0,1,1.661-3.321l11.126-3.653a82.523,82.523,0,0,0-26.9-37.032l-6.809,9.466a2.654,2.654,0,0,1-3.653.664h0a2.654,2.654,0,0,1-.664-3.653l6.975-9.466A81.687,81.687,0,0,0,129.158,80.5V92.124a2.623,2.623,0,0,1-2.657,2.657h0a2.623,2.623,0,0,1-2.657-2.657V80.5A81.687,81.687,0,0,0,80.336,94.615l6.975,9.466a2.514,2.514,0,0,1-.664,3.653h0a2.514,2.514,0,0,1-3.653-.664L76.184,97.6a82.523,82.523,0,0,0-26.9,37.032l11.126,3.653a2.668,2.668,0,0,1,1.661,3.321h0a2.668,2.668,0,0,1-3.321,1.661l-11.126-3.653a80.723,80.723,0,0,0,0,45.833L58.747,181.8a2.668,2.668,0,0,1,3.321,1.661h0a2.668,2.668,0,0,1-1.661,3.321l-11.126,3.653a82.523,82.523,0,0,0,26.9,37.032L82.993,218a2.654,2.654,0,0,1,3.653-.664h0a2.654,2.654,0,0,1,.664,3.653l-6.975,9.466a81.687,81.687,0,0,0,43.508,14.115v-11.79a2.623,2.623,0,0,1,2.657-2.657h0a2.623,2.623,0,0,1,2.657,2.657v11.79a81.687,81.687,0,0,0,43.508-14.115l-6.975-9.466a2.514,2.514,0,0,1,.664-3.653h0a2.514,2.514,0,0,1,3.653.664l6.809,9.466a82.523,82.523,0,0,0,26.9-37.032l-11.126-3.653A2.427,2.427,0,0,1,190.933,183.459Z" transform="translate(14.857 -13.245)" fill="#fff"/>
      </g>
    </g>
  </g>
</svg>
