<svg id="Group_464" data-name="Group 464" xmlns="http://www.w3.org/2000/svg" width="25.365" height="76.908" viewBox="0 0 25.365 76.908">
  <path id="Path_197" data-name="Path 197" d="M95.346,92.346c-2.325,21.422-1.661,14.78-5.646,52.31h0v7.8c0,2.989,2.989,5.48,6.809,5.48h0c3.819,0,6.809-2.491,6.809-5.48v-7.8h0c-3.653-34.707-2.491-23.913-5.646-52.31A1.163,1.163,0,0,0,95.346,92.346Z" transform="translate(-83.493 -91.225)" fill="red"/>
  <g id="Group_386" data-name="Group 386" transform="translate(0 51.542)">
    <path id="Path_198" data-name="Path 198" d="M111.1,132.455a12.7,12.7,0,1,1-9.964-9.964A12.372,12.372,0,0,1,111.1,132.455Z" transform="translate(-85.962 -122.262)" fill="red"/>
    <path id="Path_199" data-name="Path 199" d="M105.343,131.912a8.409,8.409,0,1,1-6.975-6.975A8.661,8.661,0,0,1,105.343,131.912Z" transform="translate(-84.191 -120.557)" fill="#fff"/>
  </g>
</svg>
