<svg xmlns="http://www.w3.org/2000/svg" width="190.518" height="118.947" viewBox="0 0 190.518 118.947">
  <g id="Group_500" data-name="Group 500" transform="translate(-841.521 -295.616)">
    <g id="Group_471" data-name="Group 471" transform="translate(841.521 295.616)">
      <path id="Path_224" data-name="Path 224" d="M564.1,249.092c0,40.707,9.089,85.75,10.211,86.872,40.052,16.847,137.921,11.787,171.9-1.531,5.359-24.073,9.576-62.676,8.11-87.187" transform="translate(-564.098 -227.697)" fill="#e69d42"/>
      <path id="Path_225" data-name="Path 225" d="M571.157,309.064c43.209,10.235,124,16.458,177.273-3.218a346.712,346.712,0,0,0,5.6-53.5,231.426,231.426,0,0,1-38.046,7.943,394.653,394.653,0,0,1-53.481,1.826c-19.586-.491-39.209-1.609-58.726-3.414-13.306-1.236-26.349-4.61-39.545-6.571A426.592,426.592,0,0,0,571.157,309.064Z" transform="translate(-563.69 -212.591)" fill="#fff"/>
      <g id="Group_469" data-name="Group 469" transform="translate(36.512 55.936)">
        <path id="Path_226" data-name="Path 226" d="M595.811,273.2a25.328,25.328,0,0,0-6.911-1.982,24.064,24.064,0,0,1,1.671-4.327c.389-.8.852-1.552,1.273-2.334l.557-.831c.152-.131.266-.233.365-.327,2.951,2.858,7.529-1.765,4.663-4.946-5.375-5.969-10.853.917-13.154,5.92a29.6,29.6,0,0,0-2.215,6.313c-1.9-.061-3.82-.094-5.728-.188-4.381-.225-4.438,6.583-.066,6.8,1.679.086,3.451.066,5.241.074a63.619,63.619,0,0,0,1.023,13.609c.88,4.291,7.464,2.542,6.583-1.744-.63-3.066-.2-6.329-.385-9.445-.037-.635-.086-1.269-.135-1.9a15.941,15.941,0,0,1,3.726,1.155C596.266,280.859,599.786,275.029,595.811,273.2Z" transform="translate(-573.016 -256.134)" fill="#887f74"/>
        <path id="Path_227" data-name="Path 227" d="M604.462,264.482a10.054,10.054,0,0,0-12.52-1.617c-4.577,2.813-5.523,8.155-3.287,12.8a2.933,2.933,0,0,0,1.937,1.67c3.8,3.717,9.793,4.295,13.871.594C608.483,274.275,608.032,268.281,604.462,264.482Zm-9.056,8.041a3.539,3.539,0,0,0-1.011-.692c-.9-2.8,2.542-4.913,4.855-2.939C602.7,271.835,598.3,275.389,595.406,272.523Z" transform="translate(-528.215 -239.892)" fill="#887f74"/>
        <path id="Path_228" data-name="Path 228" d="M597.033,264.4a10.053,10.053,0,0,0-12.515-1.617c-4.581,2.813-5.527,8.159-3.288,12.8a2.906,2.906,0,0,0,1.932,1.67c3.808,3.722,9.793,4.295,13.871.594C601.054,274.2,600.607,268.208,597.033,264.4Zm-9.056,8.045a3.418,3.418,0,0,0-1.011-.7c-.9-2.8,2.543-4.913,4.856-2.94C595.273,271.758,590.876,275.311,587.977,272.45Z" transform="translate(-551.197 -240.126)" fill="#887f74"/>
        <path id="Path_229" data-name="Path 229" d="M610.072,260.007c-.037-4.376-6.845-4.458-6.8-.066.033,3.885.618,7.746,1.036,11.619-4.671.02-9.305,4.61-10.1,9.584-1.023,6.395,2.51,14.616,10.342,12.34C616.607,289.98,610.15,268.531,610.072,260.007Zm-6.657,26.268c-4.549,3.988-2.551-10.857,1.339-7.541C604.836,281.145,604.938,284.94,603.415,286.275Z" transform="translate(-507.996 -254.426)" fill="#887f74"/>
      </g>
      <path id="Path_230" data-name="Path 230" d="M754.525,262.77c0,11.218-42.628,20.3-95.2,20.3s-95.2-9.085-95.2-20.3a3.429,3.429,0,0,1,.045-.614c1.519-10.927,43.54-19.684,95.155-19.684,25.87,0,49.325,2.2,66.479,5.769C743.533,251.924,754.525,257.075,754.525,262.77Z" transform="translate(-564.012 -242.471)" fill="#bdbfc1"/>
      <path id="Path_231" data-name="Path 231" d="M624.678,247.574a97.975,97.975,0,0,0-17.821-1.445c-14.014,0-25.33,2.26-25.756,5.138a.977.977,0,0,0-.016.184c0,2.989,11.32,5.331,25.772,5.331s25.772-2.342,25.772-5.331C632.629,249.949,629.8,248.569,624.678,247.574Zm-17.821,8.647c-13.494,0-24.9-2.182-24.9-4.77a.653.653,0,0,1,.008-.123c.381-2.559,11.545-4.639,24.888-4.639a96.594,96.594,0,0,1,17.563,1.421c4.659.9,7.333,2.125,7.333,3.341C631.753,254.039,620.35,256.221,606.857,256.221Z" transform="translate(-511.542 -231.153)" fill="#dfe2e6" stroke="#dfe2e6" stroke-width="1"/>
      <path id="Path_232" data-name="Path 232" d="M673.979,247.844c-11.161-2.17-25.9-3.365-41.5-3.365-32.47,0-58.672,5.138-59.647,11.689a2.093,2.093,0,0,0-.033.389c0,6.665,26.771,12.082,59.68,12.082s59.675-5.416,59.675-12.082C692.157,253.216,685.7,250.121,673.979,247.844Zm-41.5,20.237c-32.425,0-58.8-5.171-58.8-11.525a1.8,1.8,0,0,1,.029-.328c.917-6.17,27.283-11.189,58.775-11.189,15.517,0,30.165,1.187,41.244,3.341,11.156,2.166,17.559,5.146,17.559,8.176C691.285,262.911,664.9,268.081,632.482,268.081Z" transform="translate(-537.167 -236.258)" fill="#dfe2e6" stroke="#dfe2e6" stroke-width="1"/>
      <path id="Path_233" data-name="Path 233" d="M713.525,248.061c-16.262-3.165-37.743-4.9-60.49-4.9-47.278,0-85.419,7.443-86.831,16.941a2.776,2.776,0,0,0-.045.553c0,9.65,38.971,17.5,86.876,17.5s86.876-7.853,86.876-17.5C739.912,255.835,730.54,251.365,713.525,248.061Zm-60.49,29.53c-47.422,0-86-7.6-86-16.941a2.866,2.866,0,0,1,.041-.491c1.351-9.068,39.913-16.442,85.963-16.442,22.661,0,44.052,1.732,60.236,4.88,16.372,3.177,25.764,7.57,25.764,12.053C739.036,269.993,700.457,277.591,653.036,277.591Z" transform="translate(-557.721 -240.352)" fill="#dfe2e6" stroke="#dfe2e6" stroke-width="1"/>
      <path id="Path_234" data-name="Path 234" d="M753.419,265.874a4.056,4.056,0,0,0,.123-.987c0-10.817-42.181-20.72-94.213-20.72s-94.217,9.9-94.217,20.72a4.062,4.062,0,0,0,.127.987,5.262,5.262,0,0,1-1.113-3.1c0-11.218,42.627-20.3,95.2-20.3s95.2,9.081,95.2,20.3A5.264,5.264,0,0,1,753.419,265.874Z" transform="translate(-564.015 -242.468)" fill="#dedede"/>
      <g id="Group_470" data-name="Group 470" transform="translate(119.161 8.22)">
        <path id="Path_235" data-name="Path 235" d="M593.466,250.666l-.246,2.6c-.442,4.6,7.869,8.962,17.629,9.261l20.106.614c8.029.242,14.276-2.391,14.636-6.17s-5.269-7.549-13.2-8.835l-19.856-3.214C602.9,243.362,593.909,246.072,593.466,250.666Zm33.248,4.5c-.278,2.874-6.3,4.651-13.453,3.963s-12.728-3.57-12.454-6.444,6.3-4.647,13.453-3.963S626.989,252.287,626.714,255.161Z" transform="translate(-593.204 -244.479)" fill="#887f74"/>
        <path id="Path_236" data-name="Path 236" d="M640.045,250.392a27.96,27.96,0,0,0-7.492-2.24l-19.865-3.214c-9.633-1.564-18.62,1.146-19.062,5.74l-.25,2.6a4.03,4.03,0,0,0-.016.446c.119,4.43,8.2,8.524,17.641,8.814l20.114.61c8.033.246,14.272-2.387,14.636-6.166C645.981,254.564,643.758,252.148,640.045,250.392Zm-38.771,1.384c1.331-2.317,6.792-3.652,13.142-3.042,6.018.573,10.915,2.706,12.159,5.085a2.411,2.411,0,0,1,.295,1.363c-.274,2.87-6.293,4.647-13.449,3.959s-12.732-3.57-12.454-6.44A2.143,2.143,0,0,1,601.274,251.776Z" transform="translate(-592.725 -244.434)" fill="#887f74"/>
      </g>
    </g>
  </g>
</svg>
