<svg xmlns="http://www.w3.org/2000/svg" width="285.012" height="116.595" viewBox="0 0 285.012 116.595">
  <g id="Group_497" data-name="Group 497" transform="translate(-20299.209 6365.24)">
    <g id="Group_381" data-name="Group 381" transform="translate(20430.402 -6341.969)">
      <rect id="Rectangle_126" data-name="Rectangle 126" width="5.211" height="90.824" fill="#887f74" stroke="#887f74" stroke-width="5"/>
      <rect id="Rectangle_127" data-name="Rectangle 127" width="5.211" height="90.824" transform="translate(17.867)" fill="#887f74" stroke="#887f74" stroke-width="5"/>
    </g>
    <path id="Path_192" data-name="Path 192" d="M297.493,6.1H15.319A1.37,1.37,0,0,0,13.9,7.454v7.109a1.367,1.367,0,0,0,1.419,1.354h5.5a5.45,5.45,0,0,1,5.321,3.893A14.541,14.541,0,0,0,40.149,30.983H272.84A14.581,14.581,0,0,0,286.851,20.15a5.818,5.818,0,0,1,5.5-4.063h5.143a1.37,1.37,0,0,0,1.419-1.354V7.454A1.492,1.492,0,0,0,297.493,6.1Z" transform="translate(20285.309 -6371.34)" fill="#545b6e"/>
  </g>
</svg>
