<svg xmlns="http://www.w3.org/2000/svg" width="284.02" height="306.842" viewBox="0 0 284.02 306.842">
  <g id="Group_498" data-name="Group 498" transform="translate(-20298.789 6304.614)">
    <g id="Group_460" data-name="Group 460" transform="translate(20298 -6304.614)">
      <g id="Group_388" data-name="Group 388" transform="translate(0 0)">
        <ellipse id="Ellipse_45" data-name="Ellipse 45" cx="91.273" cy="91.273" rx="91.273" ry="91.273" transform="translate(51.445 51.611)" fill="#fff"/>
        <path id="Path_193" data-name="Path 193" d="M292.657,336.885l-15.1-168.772v-.664a127.949,127.949,0,0,0-255.9.166v.664L8.716,336.885a9.2,9.2,0,0,0,9.127,9.957H283.364A9.236,9.236,0,0,0,292.657,336.885ZM149.774,269.178a79.988,79.988,0,1,1,79.988-79.988A80.031,80.031,0,0,1,149.774,269.178Z" transform="translate(-7.886 -40)" fill="#545b6e"/>
        <path id="Path_194" data-name="Path 194" d="M132.347,66.7a97.247,97.247,0,1,0,97.247,97.247A97.276,97.276,0,0,0,132.347,66.7Zm0,184.869a79.988,79.988,0,1,1,79.988-79.988A80.031,80.031,0,0,1,132.347,251.569Z" transform="translate(9.541 -22.391)" fill="#fff"/>
        <path id="Path_195" data-name="Path 195" d="M190.834,183.389h0a2.666,2.666,0,0,1,3.319-1.66l11.119,3.651a80.669,80.669,0,0,0,0-45.8l-11.119,3.651a2.666,2.666,0,0,1-3.319-1.66h0a2.666,2.666,0,0,1,1.66-3.319l11.119-3.651a82.467,82.467,0,0,0-26.884-37.007l-6.8,9.459a2.652,2.652,0,0,1-3.651.664h0a2.652,2.652,0,0,1-.664-3.651l6.97-9.459A81.632,81.632,0,0,0,129.1,80.5V92.117a2.621,2.621,0,0,1-2.655,2.655h0a2.621,2.621,0,0,1-2.655-2.655V80.5A81.632,81.632,0,0,0,80.311,94.606l6.97,9.459a2.513,2.513,0,0,1-.664,3.651h0a2.513,2.513,0,0,1-3.651-.664l-6.8-9.459A82.468,82.468,0,0,0,49.279,134.6L60.4,138.251a2.666,2.666,0,0,1,1.66,3.319h0a2.666,2.666,0,0,1-3.319,1.66l-11.119-3.651a80.669,80.669,0,0,0,0,45.8l11.119-3.651a2.666,2.666,0,0,1,3.319,1.66h0a2.666,2.666,0,0,1-1.66,3.319l-11.119,3.651a82.468,82.468,0,0,0,26.884,37.007l6.8-9.459a2.652,2.652,0,0,1,3.651-.664h0a2.652,2.652,0,0,1,.664,3.651l-6.97,9.459a81.632,81.632,0,0,0,43.479,14.106V232.676a2.621,2.621,0,0,1,2.655-2.655h0a2.621,2.621,0,0,1,2.655,2.655v11.783a81.632,81.632,0,0,0,43.479-14.106l-6.97-9.459a2.512,2.512,0,0,1,.664-3.651h0a2.513,2.513,0,0,1,3.651.664l6.8,9.459a82.467,82.467,0,0,0,26.884-37.007l-11.119-3.651A2.425,2.425,0,0,1,190.834,183.389Z" transform="translate(15.608 -13.29)" fill="#e69d42"/>
      </g>
    </g>
    <ellipse id="Ellipse_44" data-name="Ellipse 44" cx="3.651" cy="3.651" rx="3.651" ry="3.651" transform="translate(20436.236 -6159.076)" fill="#fff"/>
  </g>
</svg>
