<svg id="Group_499" data-name="Group 499" xmlns="http://www.w3.org/2000/svg" width="25.35" height="76.856" viewBox="0 0 25.35 76.856">
  <path id="Path_197" data-name="Path 197" d="M95.342,92.345c-2.323,21.408-1.66,14.77-5.642,52.274h0v7.8c0,2.987,2.987,5.476,6.8,5.476h0c3.817,0,6.8-2.489,6.8-5.476v-7.8h0c-3.651-34.684-2.489-23.9-5.642-52.274A1.162,1.162,0,0,0,95.342,92.345Z" transform="translate(-83.498 -91.225)" fill="#545b6e"/>
  <g id="Group_386" data-name="Group 386" transform="translate(0 51.507)">
    <path id="Path_198" data-name="Path 198" d="M111.083,132.448a12.693,12.693,0,1,1-9.957-9.957A12.364,12.364,0,0,1,111.083,132.448Z" transform="translate(-85.962 -122.262)" fill="#545b6e"/>
    <path id="Path_199" data-name="Path 199" d="M105.332,131.907a8.4,8.4,0,1,1-6.97-6.97A8.655,8.655,0,0,1,105.332,131.907Z" transform="translate(-84.194 -120.56)" fill="#fff"/>
  </g>
</svg>
