<svg id="XMLID_4_" xmlns="http://www.w3.org/2000/svg" width="220.232" height="123.854" viewBox="0 0 220.232 123.854">
  <g id="XMLID_17_">
    <g id="XMLID_22_">
      <path id="Path_202" data-name="Path 202" d="M30.186,86.334a124.966,124.966,0,0,0,15.485-3.441c4.645-1.376,8.087-4.129,6.882-9.463C51,67.235,46.876,57.6,44.811,51.578a55.408,55.408,0,0,1-2.925-19.1c.172-5.162.344-13.248,3.269-17.894a2.37,2.37,0,0,1,3.441-.86c2.237,1.032,4.3,3.1,6.194,4.473,3.269,2.237,8.259,2.237,11.872,1.2,2.925-.688,4.99-3.269,6.538-5.678,1.2-1.721,4.99-8.431,7.4-7.915,1.721.344,2.925,3.441,3.613,4.818A60.262,60.262,0,0,1,89.2,23.706c1.549,5.678,3.957,11.528,8.947,14.8,5.85,3.785,13.764,1.721,19.614-1.032,16.173-7.742,33.723-17.378,52.3-18.41,22.883-1.2,40.261,15.141,51.445,33.723,7.054,11.7,11.356,25.808,8.431,39.229-1.893,8.775-8.087,12.732-15.485,17.894-17.378,12.044-39.917,1.032-57.983-2.237-1.548-.344-3.1-.86-4.645-1.2-11.872-2.925-18.926-4.99-31.314-5.85-11.356-.688-28.733,2.409-38.54,8.259a47.685,47.685,0,0,0-10.323,8.087c-3.1,3.269-4.3,8.259-8.087,11.184-6.022,4.818-9.807-3.1-8.947-8.431,1.032-6.882,6.022-12.216,11.356-16.345,2.753-2.237,5.85-4.129,8.947-6.194,1.376-.86,7.915-3.957,6.538-6.194a2.793,2.793,0,0,0-1.549-.86c-9.979-2.065-19.958,1.549-29.421,4.129a168.93,168.93,0,0,1-27.873,4.99c-4.99.516-15.141,0-11.012-7.054,2.753-4.818,9.635-4.818,14.453-5.678A8.484,8.484,0,0,0,30.186,86.334Z" transform="translate(-10.639 -5.784)" fill="#b2b2b2"/>
    </g>
  </g>
</svg>
