<svg id="Group_496" data-name="Group 496" xmlns="http://www.w3.org/2000/svg" width="73.924" height="79.924" viewBox="0 0 73.924 79.924">
  <path id="Path_203" data-name="Path 203" d="M199.743,99.375a3.985,3.985,0,0,0-2.753.344c-2.925,1.721-4.818,5.334-5.85,8.431a35.185,35.185,0,0,1-4.99,9.807c-1.721,2.237-3.957,4.473-6.71,5.334-4.3,1.2-7.915-.344-11.184-3.1-5.85-4.99-6.194-15.657-5.162-22.711,3.269-24.432-8.431-45.595-31.83-41.465l-2.065,7.57c.688-2.065,10.667,1.893,11.872,2.581,20.819,9.807,7.054,32.518,10.323,49.036a25.245,25.245,0,0,0,12.732,17.033,27.04,27.04,0,0,0,20.991,1.893c8.431-2.753,13.764-10.667,16.173-18.754C202.5,111.419,205.421,101.1,199.743,99.375Z" transform="translate(-129.2 -55.499)" fill="#b2b2b2"/>
</svg>
