<svg xmlns="http://www.w3.org/2000/svg" width="107.635" height="113.964" viewBox="0 0 107.635 113.964">
  <path id="Path_190" data-name="Path 190" d="M112.2,44.959c3.021-14.725,1.509-29.451,0-37.379S96.716,11.734,90.3,20.419s-29.073,6.8-29.073,6.8-22.655,1.888-29.074-6.8S11.763-.349,10.256,7.58s-3.023,22.654,0,37.379c0,0-5,26.81-1.746,37.381,3.244,10.535,28.132,34.569,52.594,36.6v.027l.125-.015.124.015v-.027c24.463-2.027,49.35-26.062,52.593-36.6C117.2,71.769,112.2,44.959,112.2,44.959ZM12.626,6.247S31.094,18.1,36.055,43.181ZM61.587,117.288l-.04.006h-.013l-.064.005c-.078.008-.407.008-.486,0l-.063-.005h-.011l-.042-.006a45.461,45.461,0,0,1-21.932-8.59S40.734,96.806,53.7,99c0,0,.794-8.536,6.667-8.374.3.006,1.427.006,1.727,0C67.962,90.464,68.758,99,68.758,99c12.962-2.194,14.763,9.7,14.763,9.7A46.8,46.8,0,0,1,61.587,117.288ZM86.642,43.18C91.6,18.1,110.07,6.248,110.07,6.248Z" transform="translate(-7.41 -5)" fill="#545b6e"/>
</svg>
