<svg xmlns="http://www.w3.org/2000/svg" width="153.377" height="153.377" viewBox="0 0 153.377 153.377">
  <g id="Group_390" data-name="Group 390" transform="translate(-575 -160)">
    <ellipse id="Ellipse_14" data-name="Ellipse 14" cx="76.688" cy="76.688" rx="76.688" ry="76.688" transform="translate(575 160)" fill="#545b6e"/>
    <g id="Group_318" data-name="Group 318" transform="translate(444.873 142.115)">
      <path id="Path_186" data-name="Path 186" d="M188.443,91.887a29.885,29.885,0,0,0,13.869-1.18,3.213,3.213,0,0,0,.837-.742,2.27,2.27,0,0,0,.494-.989q.514-9.151-5.65-22.524a118.447,118.447,0,0,0-9.134-16.1.747.747,0,0,0-.9-.278,25.87,25.87,0,0,0-9.05,6.547.891.891,0,0,0-.064.08l-3.168,4.4a.75.75,0,0,0-.063.1q-3.566,6.85-4.922,18.982a.773.773,0,0,0,.159.56Q178.246,90.045,188.443,91.887Z" transform="translate(0.417 0.112)" fill="#fff"/>
      <path id="Path_187" data-name="Path 187" d="M244.316,66.222a.9.9,0,0,0-.2-.016q-15.579.367-17.65-4.378-3.939-9.493-13.07-12.118-8.8-2.512-19.093,1.827a.74.74,0,0,0-.334,1.067,106.5,106.5,0,0,1,7.384,14.074q5.745,12.9,5.117,22.068a4.847,4.847,0,0,1-1.274,3.176,5.323,5.323,0,0,1-2.7,2.018q-4.928,1.654-13.488.951Q180.836,94.2,171.4,86.72a.733.733,0,0,0-1.174.421q-1.963,9.3-4,12.759a.729.729,0,0,0,.278,1q22.758,13.024,44.294,14.241a.748.748,0,0,0,.752-.546q3.263-11.472,3.413-11.807.856-2.227,1.027-2.53a6.092,6.092,0,0,1,.989-1.237,5.241,5.241,0,0,1,2.949-1.523,39.394,39.394,0,0,0,16.816-6.049q10.673-7.075,11.394-20.3a4.155,4.155,0,0,0-1.044-3.12A4.66,4.66,0,0,0,244.316,66.222ZM219.081,70.08a3.931,3.931,0,0,1-3.193,1.285,3.814,3.814,0,0,1,0-7.608,3.943,3.943,0,0,1,3.188,1.283A3.66,3.66,0,0,1,220,67.553,3.707,3.707,0,0,1,219.081,70.08Z" fill="#fff"/>
    </g>
  </g>
</svg>
