<svg xmlns="http://www.w3.org/2000/svg" width="153.377" height="153.377" viewBox="0 0 153.377 153.377">
  <g id="Group_401" data-name="Group 401" transform="translate(-804 -345.619)">
    <path id="Path_173" data-name="Path 173" d="M76.688,0A76.688,76.688,0,1,1,0,76.688,76.688,76.688,0,0,1,76.688,0Z" transform="translate(804 345.619)" fill="#887f74"/>
    <path id="Path_174" data-name="Path 174" d="M109.651,15.443H65.239a9.339,9.339,0,0,0-9.333,9.333V63.865h-8.9a1.883,1.883,0,0,0-1.887,1.877v5.086a9.261,9.261,0,0,0,9.251,9.241H94.923a9.253,9.253,0,0,0,9.241-9.241V31.647h12.85a1.877,1.877,0,0,0,1.877-1.887V24.684A9.253,9.253,0,0,0,109.651,15.443ZM64.246,35.785a1.785,1.785,0,0,1,2.552-.747,10.85,10.85,0,0,1,2.415,2.069,30.6,30.6,0,0,1,5.805-5.833,1.783,1.783,0,0,1,2.579.51,2.2,2.2,0,0,1-.474,2.88h0a27.1,27.1,0,0,0-6.4,7.018,1.821,1.821,0,0,1-1.513.893h-.082a1.865,1.865,0,0,1-1.549-1.03A7.6,7.6,0,0,0,64.92,38.61,2.17,2.17,0,0,1,64.246,35.785ZM77.133,47.624a26.836,26.836,0,0,0-6.4,7.027,1.871,1.871,0,0,1-1.522.893h-.082A1.894,1.894,0,0,1,67.581,54.5a7.518,7.518,0,0,0-2.643-2.9,2.171,2.171,0,0,1-.7-2.816,1.787,1.787,0,0,1,2.561-.775l.027.009a11.3,11.3,0,0,1,2.388,2.042,30.825,30.825,0,0,1,5.8-5.833,1.774,1.774,0,0,1,2.588.52A2.179,2.179,0,0,1,77.133,47.624ZM54.376,76.305a5.49,5.49,0,0,1-5.486-5.477v-3.2H85.681v3.2a9.2,9.2,0,0,0,1.8,5.477Zm41.7-26.594a1.973,1.973,0,0,1-1.877,2.06H83.6a2.073,2.073,0,0,1,0-4.129H94.2A1.978,1.978,0,0,1,96.08,49.7ZM94.2,38.811H83.6a2.073,2.073,0,0,1,0-4.129H94.2a2.074,2.074,0,0,1,0,4.129Zm20.925-10.927H104.164v-3.2a5.482,5.482,0,1,1,10.964,0Z" transform="translate(797.875 362.696)" fill="#e69d42"/>
  </g>
</svg>
