<?xml version="1.0" encoding="utf-8"?>
<!-- Generator: Adobe Illustrator 19.2.1, SVG Export Plug-In . SVG Version: 6.00 Build 0)  -->
<svg version="1.1" id="圖層_1" xmlns="http://www.w3.org/2000/svg" xmlns:xlink="http://www.w3.org/1999/xlink" x="0px" y="0px"
	 viewBox="0 0 100 100" style="enable-background:new 0 0 100 100;" xml:space="preserve">
<style type="text/css">
	.st0{fill:#FFFFFF;}
</style>
<g>
	<g>
		<path class="st0" d="M38,78.9c-7.7,0-15.3-2.2-21.8-6.4c-1-0.6-1.4-1.9-1-3c0.4-1.1,1.5-1.8,2.7-1.7c0.9,0.1,1.9,0.2,2.9,0.2
			c3.5,0,6.8-0.7,9.9-2.1c-3.9-1.8-6.9-5.2-8.3-9.5c-0.3-0.8-0.1-1.7,0.4-2.3c-3.2-2.9-5.2-7.1-5.2-11.7l0-0.2
			c0-0.9,0.5-1.7,1.3-2.2c0.1-0.1,0.3-0.1,0.4-0.2c-1-2.1-1.6-4.5-1.6-7c0-2.8,0.7-5.6,2.2-8c0.4-0.7,1.2-1.2,2-1.3
			c0.8-0.1,1.7,0.3,2.2,0.9c5.7,6.9,13.7,11.5,22.5,12.7c0-0.1,0-0.1,0-0.2c0-8.8,7.1-15.9,15.9-15.9c3.9,0,7.6,1.4,10.5,4
			c2.2-0.6,4.4-1.4,6.3-2.6c0.9-0.5,2.1-0.5,2.9,0.2c0.8,0.7,1.2,1.8,0.8,2.8c-0.2,0.7-0.5,1.3-0.8,1.9c0.8,0,1.5,0.3,2.1,0.9
			c0.7,0.9,0.8,2.1,0.2,3.1c-1.7,2.6-3.8,4.8-6.2,6.7c0,0.2,0,0.3,0,0.5c0,9.8-3.8,19.7-10.4,27.2C62.7,71.7,53.2,78.9,38,78.9z
			 M27.8,72.3c3.3,1,6.7,1.5,10.2,1.5c17.3,0,35.3-13.2,35.3-35.3c0-0.5,0-1.1,0-1.6c0-0.9,0.4-1.7,1.1-2.2c0.1-0.1,0.1-0.1,0.2-0.2
			c-1-0.1-1.8-0.8-2.1-1.7c-0.3-0.9-0.1-1.8,0.4-2.5c0,0-0.1,0-0.1,0c-0.9,0.2-1.8-0.1-2.4-0.8c-2-2.2-4.9-3.4-7.8-3.4
			c-5.9,0-10.7,4.8-10.7,10.7c0,0.8,0.1,1.7,0.3,2.4c0.2,0.8,0,1.6-0.5,2.2c-0.5,0.6-1.3,1-2.1,0.9c-9.9-0.5-19.3-4.7-26.4-11.6
			c-0.1,0.6-0.2,1.2-0.2,1.9c0,3.6,1.8,6.9,4.8,8.9c1,0.6,1.4,1.8,1,2.9c-0.3,1.1-1.3,1.8-2.5,1.8c-0.9,0-1.8-0.1-2.7-0.3
			c1.3,3.4,4.2,6,7.9,6.8c1.2,0.2,2,1.2,2.1,2.4s-0.7,2.3-1.9,2.6c-0.8,0.2-1.6,0.4-2.4,0.5c2,2.4,4.9,3.9,8.1,4
			c1.1,0,2,0.7,2.4,1.8c0.3,1,0,2.2-0.9,2.8C35.5,69.5,31.8,71.3,27.8,72.3z"/>
	</g>
</g>
</svg>
