<svg xmlns="http://www.w3.org/2000/svg" width="153.377" height="153.377" viewBox="0 0 153.377 153.377">
  <g id="Group_393" data-name="Group 393" transform="translate(-575 -345.619)">
    <ellipse id="Ellipse_14" data-name="Ellipse 14" cx="76.688" cy="76.688" rx="76.688" ry="76.688" transform="translate(575 345.619)" fill="#545b6e"/>
    <g id="Group_307" data-name="Group 307" transform="translate(617.999 371.354)">
      <g id="Group_302" data-name="Group 302" transform="translate(0 0)">
        <path id="Path_164" data-name="Path 164" d="M64.332,17.213h9.926A1.221,1.221,0,0,0,75.482,16V9.768A3.031,3.031,0,0,0,72.459,6.6H66.271a3.168,3.168,0,0,0-3.164,3.164v6.22A1.23,1.23,0,0,0,64.332,17.213Z" transform="translate(-55.814 -6.604)" fill="#fff"/>
        <path id="Path_165" data-name="Path 165" d="M89.091,16.649a6.508,6.508,0,0,0-1.766-6.632,7.678,7.678,0,0,0-5.451-2.211H70.1c-4.865,0-8.691,4.714-7.217,8.842a19.877,19.877,0,0,1,.141,12.071,9.621,9.621,0,0,0-.585,2.8V60.395a5.469,5.469,0,0,0,5.451,5.451H83.933a5.469,5.469,0,0,0,5.451-5.451V31.516a10.2,10.2,0,0,0-.433-2.937A19.415,19.415,0,0,1,89.091,16.649Zm-3.6,25.259a3.341,3.341,0,0,1-2.676.986,3.44,3.44,0,0,1-2-.878L74.43,48.41a3.293,3.293,0,0,1,.791,1.723,3.4,3.4,0,0,1-.921,2.828,3.323,3.323,0,0,1-4.725,0,3.369,3.369,0,0,1-.975-2.124,3.369,3.369,0,0,1-2.124-.975,3.323,3.323,0,0,1,0-4.725,3.364,3.364,0,0,1,2.677-.986,3.509,3.509,0,0,1,2,.878l6.4-6.415a3.6,3.6,0,0,1-.834-2.059,2.979,2.979,0,0,1,.986-2.492,3.4,3.4,0,0,1,4.681.033,3.341,3.341,0,0,1,.975,2.113,3.484,3.484,0,0,1,2.124.975,3.323,3.323,0,0,1,0,4.725Z" transform="translate(-62.434 5.229)" fill="#fff"/>
      </g>
      <g id="Group_306" data-name="Group 306" transform="translate(34.282 36.013)">
        <g id="Group_303" data-name="Group 303">
          <path id="Path_166" data-name="Path 166" d="M93.237,14.528A16.257,16.257,0,0,1,98.016,24.3a.377.377,0,0,1-.455.412A14.433,14.433,0,0,0,80.613,41.672a.579.579,0,0,1-.618.7A16.375,16.375,0,0,1,65.627,28.2a.525.525,0,0,1,.628-.563A14.453,14.453,0,0,0,83.04,10.7a.616.616,0,0,1,.65-.748,16.17,16.17,0,0,1,9.547,4.573Z" transform="translate(-65.352 -9.689)" fill="#fff"/>
          <path id="Path_167" data-name="Path 167" d="M80.316,42.886l-.1-.011A16.609,16.609,0,0,1,65.6,28.474a.8.8,0,0,1,.943-.867A14.183,14.183,0,0,0,83.025,10.985a.925.925,0,0,1,.228-.791.839.839,0,0,1,.715-.26,16.409,16.409,0,0,1,9.709,4.638,16.68,16.68,0,0,1,4.855,9.937.652.652,0,0,1-.769.7A14.185,14.185,0,0,0,81.118,41.868a.854.854,0,0,1-.217.748A.768.768,0,0,1,80.316,42.886ZM66.4,28.138a.3.3,0,0,0-.195.065.26.26,0,0,0-.076.206A16.111,16.111,0,0,0,80.273,42.344a.247.247,0,0,0,.238-.087.316.316,0,0,0,.076-.293A14.729,14.729,0,0,1,97.86,24.682a.148.148,0,0,0,.108-.022L98,24.573a16.143,16.143,0,0,0-4.7-9.622A15.872,15.872,0,0,0,83.9,10.465a.28.28,0,0,0-.26.1.361.361,0,0,0-.1.325A14.713,14.713,0,0,1,66.457,28.138Z" transform="translate(-65.598 -9.927)" fill="#fff"/>
        </g>
        <g id="Group_304" data-name="Group 304" transform="translate(0.006 0.1)">
          <path id="Path_168" data-name="Path 168" d="M79.185,9.97a.886.886,0,0,1,.986.65A11.642,11.642,0,0,1,66.138,24.664a.69.69,0,0,1-.509-.748A16.336,16.336,0,0,1,79.185,9.97Z" transform="translate(-65.349 -9.695)" fill="#fff"/>
          <path id="Path_169" data-name="Path 169" d="M69.237,25.5a11.694,11.694,0,0,1-2.915-.336.943.943,0,0,1-.715-1.04A16.635,16.635,0,0,1,79.39,9.952h0a1.154,1.154,0,0,1,1.289.845A11.934,11.934,0,0,1,69.237,25.5Zm10.24-15.019A16.063,16.063,0,0,0,66.138,24.2a.412.412,0,0,0,.314.444A11.382,11.382,0,0,0,80.16,10.927a.614.614,0,0,0-.683-.444Z" transform="translate(-65.598 -9.937)" fill="#fff"/>
        </g>
        <g id="Group_305" data-name="Group 305" transform="translate(17.509 17.287)">
          <path id="Path_170" data-name="Path 170" d="M82.152,12.008A16.326,16.326,0,0,1,68.477,26.583a.812.812,0,0,1-.9-.6A11.647,11.647,0,0,1,82.152,12.008Z" transform="translate(-66.965 -11.279)" fill="#fff"/>
          <path id="Path_171" data-name="Path 171" d="M68.606,27.108a1.077,1.077,0,0,1-1.04-.813A11.912,11.912,0,0,1,82.465,12a.261.261,0,0,1,.2.282,16.6,16.6,0,0,1-13.892,14.8ZM79.02,12.057A11.373,11.373,0,0,0,68.086,26.165a.535.535,0,0,0,.6.4,15.97,15.97,0,0,0,8.929-4.627,15.806,15.806,0,0,0,4.5-9.482A11.142,11.142,0,0,0,79.02,12.057Z" transform="translate(-67.213 -11.523)" fill="#fff"/>
        </g>
      </g>
    </g>
  </g>
</svg>
