<svg xmlns="http://www.w3.org/2000/svg" width="153.377" height="153.377" viewBox="0 0 153.377 153.377">
  <g id="Group_399" data-name="Group 399" transform="translate(-345 -160)">
    <ellipse id="Ellipse_14" data-name="Ellipse 14" cx="76.688" cy="76.688" rx="76.688" ry="76.688" transform="translate(345 160)" fill="#887f74"/>
    <g id="Group_299" data-name="Group 299" transform="translate(388 191.988)">
      <path id="Path_156" data-name="Path 156" d="M69.8,58.025c-2.667-10.261-5.358-19.335-8.057-29.59a7.792,7.792,0,0,0-7.509-5.795l-9.478-.008V17.319c3.87,0,8.438-.005,12.308-.011.149,0,.3,0,.445-.011a11.677,11.677,0,0,0,7.679-3.354c2.039-2.028,3.277-3.676,3.4-6.532a5.254,5.254,0,0,0-.005-.844,2.958,2.958,0,0,0-2.233-2.5c-.1-.024-.213-.035-.319-.053L65.709,4H7.836c-.109.005-.218.005-.325.019a2.818,2.818,0,0,0-.631.144,3.088,3.088,0,0,0-1.922,2.5c-.011.109-.011.216-.019.325v0c.005,3.143,1.339,4.985,3.615,7.141a11.735,11.735,0,0,0,7.958,3.173l12.273,0v5.321l-9.478.008A7.784,7.784,0,0,0,11.8,28.434c-2.7,10.253-5.39,19.329-8.057,29.59-.024.09-.045.181-.067.274a8.143,8.143,0,0,0,1.8,6.987,7.9,7.9,0,0,0,5.776,2.6q25.516.048,51.035,0a7.792,7.792,0,0,0,6.8-4.038A8.21,8.21,0,0,0,69.8,58.025ZM34.11,17.316h5.323v5.313H34.11ZM49.83,50.843a14.472,14.472,0,1,1-13.1-20.7h.093a14.468,14.468,0,0,1,13.01,20.7Z" transform="translate(-3.5 -4)" fill="#e69d42"/>
      <path id="Path_157" data-name="Path 157" d="M17.889,15a2.666,2.666,0,0,0-1.038.186,3.431,3.431,0,0,0-1.938,3.143v6.662a3.774,3.774,0,0,0,.532,1.927,2.733,2.733,0,0,0,3.543,1.115A3.49,3.49,0,0,0,20.7,24.992V18.33a3.994,3.994,0,0,0-.162-1.1A3.056,3.056,0,0,0,17.889,15Z" transform="translate(15.465 14.278)" fill="#e69d42"/>
    </g>
  </g>
</svg>
