<svg xmlns="http://www.w3.org/2000/svg" width="10.332" height="10.331" viewBox="0 0 10.332 10.331">
  <g id="Group_398" data-name="Group 398" transform="translate(-149.668 -291.669)">
    <circle id="Ellipse_23" data-name="Ellipse 23" cx="5.166" cy="5.166" r="5.166" transform="translate(149.668 291.669)" fill="red"/>
    <g id="Group_124" data-name="Group 124" transform="translate(154.141 293.492)">
      <path id="Path_106" data-name="Path 106" d="M43.389,80.116a.555.555,0,1,1-.555-.555.555.555,0,0,1,.555.555Z" transform="translate(-42.07 -74.203)" fill="#fff"/>
      <path id="Path_107" data-name="Path 107" d="M40.883,5.738a.83.83,0,0,0-.167-.428.726.726,0,0,0-1.177-.017.806.806,0,0,0-.18.578l.316,3.614a.448.448,0,0,0,.893,0l.316-3.614A.814.814,0,0,0,40.883,5.738Z" transform="translate(-39.356 -5)" fill="#fff"/>
    </g>
  </g>
</svg>
