<svg xmlns="http://www.w3.org/2000/svg" width="153.377" height="153.377" viewBox="0 0 153.377 153.377">
  <g id="Group_406" data-name="Group 406" transform="translate(-804 -531.238)">
    <ellipse id="Ellipse_14" data-name="Ellipse 14" cx="76.688" cy="76.688" rx="76.688" ry="76.688" transform="translate(804 531.238)" fill="#887f74"/>
    <path id="Path_158" data-name="Path 158" d="M105.423,46.191a1.4,1.4,0,0,0,1.364-1.15,31.6,31.6,0,0,0,0-11.142,1.39,1.39,0,0,0-1.364-1.15H98.574a2.639,2.639,0,0,1-2.448-1.632l-.054-.134a2.633,2.633,0,0,1,.575-2.889l4.829-4.842a1.4,1.4,0,0,0,.161-1.779,32.177,32.177,0,0,0-7.892-7.865,1.414,1.414,0,0,0-1.779.161l-4.842,4.856a2.687,2.687,0,0,1-2.889.575l-.107-.04A2.67,2.67,0,0,1,82.482,16.7V9.874A1.393,1.393,0,0,0,81.332,8.5a32.32,32.32,0,0,0-5.5-.482,31.418,31.418,0,0,0-5.645.508,1.39,1.39,0,0,0-1.137,1.364V16.75a2.671,2.671,0,0,1-1.632,2.461l-.067.013a2.631,2.631,0,0,1-2.9-.562l-4.829-4.829a1.383,1.383,0,0,0-1.779-.161,31.5,31.5,0,0,0-7.865,7.892,1.383,1.383,0,0,0,.161,1.779l4.842,4.842a2.638,2.638,0,0,1,.575,2.889l-.013.04a2.639,2.639,0,0,1-2.448,1.632H46.246a1.39,1.39,0,0,0-1.364,1.15,31.606,31.606,0,0,0,0,11.142,1.4,1.4,0,0,0,1.364,1.15h6.849a2.639,2.639,0,0,1,2.448,1.632l.013.04a2.638,2.638,0,0,1-.575,2.889l-4.842,4.842a1.383,1.383,0,0,0-.161,1.779,31.5,31.5,0,0,0,7.865,7.892,1.383,1.383,0,0,0,1.779-.161l4.829-4.829a2.659,2.659,0,0,1,2.9-.575l.067.027a2.653,2.653,0,0,1,1.632,2.448v6.875a1.39,1.39,0,0,0,1.137,1.364,31.418,31.418,0,0,0,5.645.508,32.32,32.32,0,0,0,5.5-.482,1.393,1.393,0,0,0,1.15-1.378V62.242a2.67,2.67,0,0,1,1.645-2.461l.107-.04a2.662,2.662,0,0,1,2.889.575l4.842,4.856a1.4,1.4,0,0,0,1.779.147,31.894,31.894,0,0,0,7.892-7.852,1.417,1.417,0,0,0-.161-1.792l-4.829-4.829a2.638,2.638,0,0,1-.575-2.889l.054-.134a2.639,2.639,0,0,1,2.448-1.632ZM75.834,50.551A11.082,11.082,0,1,1,86.91,39.462,11.083,11.083,0,0,1,75.834,50.551Z" transform="translate(804.613 552.367)" fill="#e69d42"/>
  </g>
</svg>
