<?xml version="1.0" encoding="utf-8"?>
<!-- Generator: Adobe Illustrator 19.2.1, SVG Export Plug-In . SVG Version: 6.00 Build 0)  -->
<svg version="1.1" id="圖層_1" xmlns="http://www.w3.org/2000/svg" xmlns:xlink="http://www.w3.org/1999/xlink" x="0px" y="0px"
	 viewBox="0 0 100 100" style="enable-background:new 0 0 100 100;" xml:space="preserve">
<style type="text/css">
	.st0{fill:#FFFFFF;}
</style>
<g>
	<g>
		<path class="st0" d="M65.2,16.1H34.8c-10.3,0-18.7,8.4-18.7,18.7v30.4c0,10.3,8.4,18.7,18.7,18.7h30.4c10.3,0,18.7-8.4,18.7-18.7
			V34.8C83.9,24.5,75.5,16.1,65.2,16.1z M78.4,65.1c0,7.3-6,13.3-13.3,13.3H34.9c-7.3,0-13.3-6-13.3-13.3V34.9
			c0-7.3,6-13.3,13.3-13.3h30.3c7.3,0,13.3,6,13.3,13.3V65.1z"/>
	</g>
	<g>
		<path class="st0" d="M50,32.1c-9.9,0-17.9,8-17.9,17.9c0,9.9,8,17.9,17.9,17.9c9.9,0,17.9-8,17.9-17.9
			C67.9,40.1,59.9,32.1,50,32.1z M50,61.7c-6.4,0-11.7-5.2-11.7-11.7c0-6.4,5.2-11.7,11.7-11.7S61.7,43.6,61.7,50
			C61.7,56.4,56.4,61.7,50,61.7z"/>
	</g>
	<g>
		<circle class="st0" cx="68.5" cy="31.5" r="4"/>
	</g>
</g>
</svg>
