<?xml version="1.0" encoding="utf-8"?>
<!-- Generator: Adobe Illustrator 19.2.1, SVG Export Plug-In . SVG Version: 6.00 Build 0)  -->
<svg version="1.1" id="圖層_1" xmlns="http://www.w3.org/2000/svg" xmlns:xlink="http://www.w3.org/1999/xlink" x="0px" y="0px"
	 viewBox="0 0 100 100" style="enable-background:new 0 0 100 100;" xml:space="preserve">
<style type="text/css">
	.st0{fill:#FFFFFF;}
</style>
<g>
	<path class="st0" d="M55.2,86.2H40.6c-1.4,0-2.6-1.2-2.6-2.6V54.3h-4.4c-1.4,0-2.6-1.2-2.6-2.6V39.3c0-1.4,1.1-2.6,2.6-2.6H38v-5.5
		c0-8,4.6-17.4,17.4-17.4l10.9,0c1.4,0,2.6,1.2,2.6,2.6v12.1c0,1.4-1.1,2.6-2.6,2.6h-7.9c-0.2,0-0.4,0.1-0.4,0.1
		c0,0-0.1,0.2-0.1,0.7v4.8h8.6c0.7,0,1.4,0.3,1.9,0.8c0.5,0.5,0.7,1.3,0.6,2L67.7,52c-0.1,1.3-1.2,2.3-2.6,2.3h-7.3v29.3
		C57.8,85,56.7,86.2,55.2,86.2z M43.1,81h9.5V51.7c0-1.4,1.1-2.6,2.6-2.6h7.6l0.8-7.3h-8.3c-1.4,0-2.6-1.2-2.6-2.6v-7.3
		c0-4.1,2.9-6,5.7-6h5.3v-7l-8.3,0c-11,0-12.2,8.6-12.2,12.2v8.1c0,1.4-1.1,2.6-2.6,2.6h-4.4v7.3h4.4c1.4,0,2.6,1.2,2.6,2.6V81z"/>
</g>
</svg>
