<svg xmlns="http://www.w3.org/2000/svg" width="44.121" height="44.12" viewBox="0 0 44.121 44.12">
  <g id="add-to-cart" transform="translate(0 0.001)">
    <path id="Path_209" data-name="Path 209" d="M329.547,324.785h-2.169v-2.169a1.293,1.293,0,0,0-2.585,0v2.169h-2.169a1.293,1.293,0,1,0,0,2.585h2.169v2.168a1.293,1.293,0,0,0,2.585,0v-2.168h2.169a1.293,1.293,0,1,0,0-2.585Zm0,0" transform="translate(-293.642 -293.635)" fill="#545b6e"/>
    <path id="Path_210" data-name="Path 210" d="M39.742,23.336a4.753,4.753,0,0,0-.376-9.492H37.895L33.375,2.934a4.754,4.754,0,1,0-8.784,3.638L27.6,13.844H16.517l3.012-7.271a4.754,4.754,0,1,0-8.784-3.638L6.226,13.844H4.754A4.754,4.754,0,0,0,3.6,23.21L5.784,39.567a5.367,5.367,0,0,0,5.2,4.553h21.46a11.672,11.672,0,0,0,7.3-20.784ZM26.98,5.583a2.169,2.169,0,0,1,4.007-1.66l4.109,9.92H30.4ZM13.133,3.923a2.169,2.169,0,1,1,4.007,1.66l-3.421,8.26H9.024ZM2.585,18.6a2.171,2.171,0,0,1,2.169-2.169H39.366a2.169,2.169,0,1,1,0,4.338H4.754A2.171,2.171,0,0,1,2.585,18.6Zm8.4,22.937a2.774,2.774,0,0,1-2.637-2.309L6.23,23.352h18.9a11.661,11.661,0,0,0,0,18.183Zm21.46,0a9.091,9.091,0,1,1,9.091-9.091A9.1,9.1,0,0,1,32.444,41.534Zm0,0" transform="translate(0 0)" fill="#545b6e"/>
  </g>
</svg>
