<svg xmlns="http://www.w3.org/2000/svg" width="69.866" height="72.779" viewBox="0 0 69.866 72.779">
  <g id="spinner-of-dots" transform="translate(-9.142)">
    <g id="Group_380" data-name="Group 380" transform="translate(9.142)">
      <g id="Group_379" data-name="Group 379" transform="translate(0)">
        <path id="Path_212" data-name="Path 212" d="M75.076,324.332a6.561,6.561,0,1,0,4.617,1.91A6.318,6.318,0,0,0,75.076,324.332Z" transform="translate(-59.064 -272.66)" fill="#545b6e"/>
        <path id="Path_213" data-name="Path 213" d="M23.7,199.135a7.011,7.011,0,0,0-2.138-5.141,7.009,7.009,0,0,0-5.14-2.138,7.009,7.009,0,0,0-5.14,2.138,7.249,7.249,0,0,0,0,10.28,7.007,7.007,0,0,0,5.14,2.138,7.007,7.007,0,0,0,5.14-2.138A7.006,7.006,0,0,0,23.7,199.135Z" transform="translate(-9.142 -161.291)" fill="#545b6e"/>
        <path id="Path_214" data-name="Path 214" d="M346.25,94.073A3.649,3.649,0,1,0,343.68,93,3.5,3.5,0,0,0,346.25,94.073Z" transform="translate(-289.483 -72.966)" fill="#545b6e"/>
        <path id="Path_215" data-name="Path 215" d="M67.4,59.388a8,8,0,1,0,5.663,2.342A7.716,7.716,0,0,0,67.4,59.388Z" transform="translate(-51.387 -49.926)" fill="#545b6e"/>
        <path id="Path_216" data-name="Path 216" d="M400.328,211.406A4.394,4.394,0,1,0,401.6,214.5,4.209,4.209,0,0,0,400.328,211.406Z" transform="translate(-331.735 -176.655)" fill="#545b6e"/>
        <path id="Path_217" data-name="Path 217" d="M338.569,333.473a5.125,5.125,0,1,0,3.593,1.5A4.9,4.9,0,0,0,338.569,333.473Z" transform="translate(-281.802 -280.345)" fill="#545b6e"/>
        <path id="Path_218" data-name="Path 218" d="M206.821,383.717a5.827,5.827,0,1,0,4.116,1.707A5.613,5.613,0,0,0,206.821,383.717Z" transform="translate(-170.432 -322.584)" fill="#545b6e"/>
        <path id="Path_219" data-name="Path 219" d="M191.461,0a8.424,8.424,0,0,0-6.187,2.547,8.425,8.425,0,0,0-2.547,6.187,8.422,8.422,0,0,0,2.547,6.186,8.787,8.787,0,0,0,12.373,0,8.422,8.422,0,0,0,2.547-6.186,8.426,8.426,0,0,0-2.547-6.187A8.421,8.421,0,0,0,191.461,0Z" transform="translate(-155.072 0)" fill="#545b6e"/>
      </g>
    </g>
  </g>
</svg>
