<svg xmlns="http://www.w3.org/2000/svg" width="46.113" height="46.113" viewBox="0 0 46.113 46.113">
  <g id="Group_394" data-name="Group 394" transform="translate(-617 -3003.636)">
    <g id="Group_38" data-name="Group 38" transform="translate(153.818 2875.639)">
      <path id="Path_42" data-name="Path 42" d="M509.287,150.486a23.053,23.053,0,1,0,.007.568Zm-22.934,19.228a18.66,18.66,0,1,1,18.539-19.119l.006.46A18.66,18.66,0,0,1,486.353,169.713Z" fill="#545b6e"/>
      <path id="Path_43" data-name="Path 43" d="M587.448,298.222l-.023-.024a2.406,2.406,0,0,0-3.4,0l-.023.024L573.22,308.986a2.4,2.4,0,0,0,3.4,3.39l9.11-9.093,9.11,9.093a2.4,2.4,0,0,0,3.4-3.39Z" transform="translate(-99.488 -154.233)" fill="#545b6e"/>
    </g>
  </g>
</svg>
