<svg xmlns="http://www.w3.org/2000/svg" xmlns:xlink="http://www.w3.org/1999/xlink" width="394.506" height="541.595" viewBox="0 0 394.506 541.595">
  <defs>
    <clipPath id="clip-path">
      <rect id="Rectangle_69" data-name="Rectangle 69" width="153.993" height="44.46" fill="none"/>
    </clipPath>
    <clipPath id="clip-path-2">
      <rect id="Rectangle_70" data-name="Rectangle 70" width="81.483" height="132.283" fill="none"/>
    </clipPath>
  </defs>
  <g id="Group_220" data-name="Group 220" transform="translate(-720.342 -606.626) rotate(19)">
    <path id="Path_11" data-name="Path 11" d="M1251.506,383.739a4.007,4.007,0,0,0-1.078-.355c-3.406-.428-5.442,1.389-8.825,1.909-1.511.231-4.118-2.7-5.426.2-.482,1.075-1.294,3.874-2.3,6.173-1.467,3.351-5.355,6.712-8.933,8.811-14.06,8.247-29.975,12.439-45.848,16.091a5.858,5.858,0,0,1-2.752.181c-1.609-.417-2.541-2.047-3.323-3.514a124.732,124.732,0,0,0-12.713-19.284c-4.3-5.367-9.2-10.49-15.4-13.479s-13.933-3.513-19.775.119a16.335,16.335,0,0,0-7.555,12.8c-.661,12.759,16.148,20.875,24.937,27.406a221.724,221.724,0,0,0,26.161,16.737,9.569,9.569,0,0,0,3.564,1.347,9.7,9.7,0,0,0,3.987-.753c16.613-5.677,32.631-12.785,48.589-20.255,4.383-2.052,7.133-6.149,11.2-8.011,2.6-1.189,5.492-.252,8.192-.83a26.629,26.629,0,0,0,8.3-3.521c4.476-2.99,4.724-8.544,5.419-13.375a5.775,5.775,0,0,0-.09-3.088c-.623-1.744-2.133-2.721-3.593-3.746a16.21,16.21,0,0,0-2.745-1.57" transform="translate(28.414 26.544)" fill="#eac5b0"/>
    <path id="Path_12" data-name="Path 12" d="M1148.167,425.608l25.2-18.048c-.539.387-24.967-39.78-26.5-42.12-5.861-8.936-12-18.151-21.061-23.82-19.343-12.108-43.773,5.371-36.341,27.778,8.069,24.323,26.1,47.61,47.181,62.075a3.22,3.22,0,0,0,1.5.68,3.309,3.309,0,0,0,2.072-.846l7.956-5.7" transform="translate(21.43 16.971)" fill="#fff"/>
    <path id="Path_13" data-name="Path 13" d="M.351,2.565,0,28.019l14.7.2L15.085,0Z" transform="matrix(0.891, -0.454, 0.454, 0.891, 1241.869, 738.639)" fill="#eac5b0"/>
    <path id="Path_14" data-name="Path 14" d="M16.591,0,3.809,4.337,0,8.547l.644,9.975,34.549,2.755a7.973,7.973,0,0,0-3.851-12l-1.607-.567Z" transform="matrix(0.891, -0.454, 0.454, 0.891, 1250.016, 761.684)" fill="#3b455a"/>
    <path id="Path_15" data-name="Path 15" d="M1041.391,643.8l-9.734,23.414,13.523,5.909,10.791-25.958Z" transform="translate(8.053 89.532)" fill="#eac5b0"/>
    <path id="Path_16" data-name="Path 16" d="M1045.772,669.3a11.378,11.378,0,0,0-1.706-1.563c-1.626-1.22-14.725-8.344-15.85-5.133a3.689,3.689,0,0,0-.061,1.645,125,125,0,0,0,6.281,27.1c1.322,3.743,3.329,7.888,7.1,8.822a10.89,10.89,0,0,0,5.047-.278,51.709,51.709,0,0,0,7.2-2.241,3.99,3.99,0,0,0,2.211-1.575c.888-1.65-.663-3.6-2.281-4.49s-3.6-1.526-4.389-3.227a6.664,6.664,0,0,1-.449-2.475c-.329-6.262.705-12.275-3.1-16.587" transform="translate(7.209 93.794)" fill="#3b455a"/>
    <path id="Path_17" data-name="Path 17" d="M1133.311,594.88c-4.822,22.629-18.6,38.884-33.328,55.525a713.294,713.294,0,0,0-47.454,59.8q-9.569-4.095-19.137-8.19c5.333-31.8,20.028-60.974,31.418-91.048,7.913-20.9,14.325-43,14.672-65.584.173-11.232-2.479-21.5-3.9-32.428-1.759-13.532-1.859-27.4-3.449-41-.533-4.558-.836-9.949,2.579-12.916a11.6,11.6,0,0,1,5.48-2.264c72.531-14.417,62.284,95.071,53.116,138.1" transform="translate(8.465 44.897)" fill="#3b455a"/>
    <path id="Path_18" data-name="Path 18" d="M0,37.338A158.188,158.188,0,0,1,4.1.285C24.729-.85,48.046,1.493,68.452,5.743,88.4,9.9,100.834,14.352,100.977,36.548c.266,40.844,15.819,75.635,22.536,114.893,3.9,22.814-2.842,43.222-10.313,64.351A730.629,730.629,0,0,0,91.4,289.6q-10.367-.063-20.733-.126c-6.82-31.5-4.007-64.215-4.586-96.475-.4-22.42-2.64-45.363-10.667-66.394-8.824-23.121-21.529-13.92-36.113-27.327C5.122,86.245.068,61.052,0,37.338" transform="matrix(0.914, -0.407, 0.407, 0.914, 1058.655, 512.336)" fill="#3b455a"/>
    <path id="Path_19" data-name="Path 19" d="M1092.572,346.229a55.75,55.75,0,0,0-6.259,6.164l-5.318,5.82c-6.139,6.722-9.172,16.673-11.8,25.259-13.851,45.188-18.835,107.184-9.84,154.4,34.113,3.023,73.595-5.8,107.633-10.576,3.309-.464,7.058-1.223,8.775-4.164,1.042-1.784,1.071-3.978,1.071-6.055,0-29.975-6.175-62.19-11.963-91.74a330.244,330.244,0,0,0-9.312-36.923c-4.086-12.8-8.691-26.619-18.252-36.3-10.23-10.36-29.817-15.476-42.625-7.389a24.261,24.261,0,0,0-2.106,1.5" transform="translate(13.544 17.702)" fill="#fff"/>
    <path id="Path_20" data-name="Path 20" d="M1093.094,366.66q-.926-6.116-1.849-12.23a22.037,22.037,0,0,1-2.345-1.333c-14.226-9.323-38.091-59.384-.168-70.59,34.436-10.174,32.645,38.444,25.924,58.716a30.4,30.4,0,0,1-4.963,9.589c-1.557,1.943-1.907,1.575-1.684,3.827.216,2.181,2.332,4.649,2.814,6.948a8.463,8.463,0,0,1-4.483,10.162,10.455,10.455,0,0,1-6.886,1.319c-2.78-.541-5.918-3.488-6.36-6.408" transform="translate(16.741 3.57)" fill="#eac5b0"/>
    <path id="Path_21" data-name="Path 21" d="M1114.842,318.989a77.843,77.843,0,0,1-8.751,18.314,134.178,134.178,0,0,0-4.186-35.53,3.528,3.528,0,0,1,.019-2.66,3.116,3.116,0,0,1,2.133-1.178c14.5-3.218,14.46,9.78,10.786,21.053" transform="translate(24.643 7.438)" fill="#3b455a"/>
    <path id="Path_22" data-name="Path 22" d="M1087.616,340.544c-2.327,3.36-7.423,2.455-11.011.6-14.74-7.6-23.414-25.911-20.146-42.505,2.736-13.887,19.791-24.3,23.24-7.1,1.223,6.1-2.4,14.552-1.568,21.32,1.185,9.671,5.576,18.919,9.485,27.677" transform="translate(13.769 3.913)" fill="#3b455a"/>
    <path id="Path_23" data-name="Path 23" d="M1121.528,273.324c1.653.67,3.333,1.377,5.1,2.087,3.665,1.472,6.32,1.968,10.1-.236,1.08-.631,8.321-7.656,6.578-9.116,11.551,9.671,2.053,23.789-2.28,33.782-2.921,6.736-3.521,16.245-10.084,20.647-7.219,4.842-12.171-1.28-18.726-4.024-5.781-2.42-12.03-3.73-17.913-5.883-9.761-3.575-24.286-9.854-21.054-23.164,3.776-15.546,19.122-19.42,32.908-18.232,5.889.507,10.5,2.165,15.369,4.14" transform="translate(17.803)" fill="#3b455a"/>
    <path id="Path_24" data-name="Path 24" d="M1041.15,460s110.082,187.289,260.436,7.665a17.119,17.119,0,0,0-.254-21.494C1146.767,270.161,1041.15,460,1041.15,460" transform="translate(10.303 24.962)" fill="#ebb044"/>
    <path id="Path_25" data-name="Path 25" d="M998.779,395.41c-3.189-5.308.885-10.586,8.044-9.593,44.5,6.179,87.121,37.029,91.9,70.233-3.59,30.436-44.2,64.131-86.841,72.291-7.48,1.431-12.045-4.108-8.419-9.6,17.548-26.554,26.231-71.872-4.687-123.336" transform="translate(0 28.356)" fill="#ebb044"/>
    <path id="Path_26" data-name="Path 26" d="M1120.339,419.006s-11.069-41.254-29.169-64.258c-3.157-4.013.771-9.853,5.959-10.035,19.294-.677,60.793,4.644,103.135,53.442Z" transform="translate(21.891 18.63)" fill="#ebb044"/>
    <path id="Path_27" data-name="Path 27" d="M1114.154,488.022s-3.872,29.409-14.632,47.038c-1.876,3.076,1.536,6.672,5.295,6.261,13.977-1.529,43.365-9.462,69.033-47.269Z" transform="translate(24.013 52.609)" fill="#ebb044"/>
    <g id="Group_24" data-name="Group 24" transform="translate(1083.029 517.427)" opacity="0.1">
      <g id="Group_23" data-name="Group 23" transform="translate(0)">
        <g id="Group_22" data-name="Group 22" clip-path="url(#clip-path)">
          <path id="Path_28" data-name="Path 28" d="M1066.676,469.264s53.527,72.388,153.993,32.43c0,0-86.7,16.383-153.993-32.43" transform="translate(-1066.675 -469.264)" fill="#272525"/>
        </g>
      </g>
    </g>
    <g id="Group_27" data-name="Group 27" transform="translate(1234.075 416.602)" opacity="0.24">
      <g id="Group_26" data-name="Group 26" transform="translate(0)">
        <g id="Group_25" data-name="Group 25" clip-path="url(#clip-path-2)">
          <path id="Path_29" data-name="Path 29" d="M1266.6,463.787a17.121,17.121,0,0,0-.256-21.5c-22.012-25.065-43.027-42.7-62.892-54.534-14.46,32.385-24.559,79.958,1.169,132.283,19.7-12.3,40.422-30.5,61.978-56.254" transform="translate(-1188.78 -387.758)" fill="#fff"/>
        </g>
      </g>
    </g>
    <path id="Path_30" data-name="Path 30" d="M1200.136,434.306a11.121,11.121,0,1,1,11.251,10.988,11.12,11.12,0,0,1-11.251-10.988" transform="translate(47.986 37.211)" fill="#3b455a"/>
    <path id="Path_31" data-name="Path 31" d="M1082.6,497.422a4,4,0,0,0,.689-.9c1.526-3.078.476-5.6,1.1-8.962.277-1.5,3.909-3,1.591-5.19-.855-.809-3.232-2.5-5.073-4.2-2.683-2.488-4.581-7.264-5.387-11.334-1.525-7.7,2.995-30.071-6.376-33.862-22.016-8.905-6.536,36.932-6.131,41.241.27,2.844-1.566,5.27-1.907,8.01a26.6,26.6,0,0,0,.6,9c1.352,5.209,6.515,7.269,10.851,9.514a5.769,5.769,0,0,0,2.945.928c1.852-.015,3.271-1.118,4.718-2.162a16.2,16.2,0,0,0,2.385-2.077" transform="translate(14.142 39.29)" fill="#eac5b0"/>
    <path id="Path_32" data-name="Path 32" d="M1082.329,351.791c-.955,1.016-2.04,2.582-3.581,4.343-8.1,9.244-13.152,24.341-17.094,35.787A174.9,174.9,0,0,0,1053.1,468.2a3.72,3.72,0,0,0,1,2.574,3.768,3.768,0,0,0,2.688.494l17.449-1.2a7.308,7.308,0,0,0,3.612-.891c2.038-1.358,2.179-4.243,2.155-6.693a187.579,187.579,0,0,1,5.688-47.647c1.851-7.349,6.872-16.028,7.385-23.448.463-6.672-2.428-14.32-2-21.632.256-4.386.632-10.9-1.992-14.746-3.471-5.082-4.861-5.231-6.755-3.216" transform="translate(12.883 20.034)" fill="#fff"/>
  </g>
</svg>
