<svg xmlns="http://www.w3.org/2000/svg" xmlns:xlink="http://www.w3.org/1999/xlink" width="768" height="1020" viewBox="0 0 768 1020">
  <defs>
    <clipPath id="clip-path">
      <rect id="Rectangle_108" data-name="Rectangle 108" width="768" height="1020" fill="#fff" stroke="#707070" stroke-width="1"/>
    </clipPath>
  </defs>
  <g id="Mask_Group_6" data-name="Mask Group 6" clip-path="url(#clip-path)">
    <g id="Group_84" data-name="Group 84">
      <rect id="Rectangle_78" data-name="Rectangle 78" width="838" height="1074" transform="translate(-35 -30)" fill="#887f74"/>
      <g id="Group_83" data-name="Group 83">
        <g id="Group_80" data-name="Group 80" transform="translate(-1098.323 67.692)">
          <path id="Path_49" data-name="Path 49" d="M1911.684,778.513s-180.749-21.551-411.852,33.98c-288.639,69.354-384.37-9.381-510.874-55.53v230.7h922.726Z" transform="translate(6.159 41.579)" fill="#545b6e"/>
          <path id="Path_50" data-name="Path 50" d="M1922.594,871.394s-106.522-45.231-252.96-46.027-178.1,56.432-287.689,56.432-165.6-41.078-260.584-49.153-139.078,23.939-139.078,23.939v109.37h940.311Z" transform="translate(4.041 63.284)" fill="#98a5c9"/>
        </g>
        <g id="Group_81" data-name="Group 81" transform="translate(509.762 792.456)">
          <path id="Path_65" data-name="Path 65" d="M1500.788,700.829s2.882-8.879-4.286-20.17c-1.944,2.066-6.2,18.187-6.2,18.187S1494.759,705.9,1500.788,700.829Z" transform="translate(-1442.49 -680.659)" fill="#c17110"/>
          <path id="Path_66" data-name="Path 66" d="M1425.008,758.292c7.222-5,14.662,2.194,16.022,9,0,0,2.171,15.934,8.953,24.2s5.724,12.9,3.113,20.462c-1.927,5.578-2.614,14.859-2.843,19.349a3,3,0,0,1-2.735,2.83l-10.165.925s-.967-5.619,3.979-7.888c3.561-1.941,5.488-18.48,3.813-22.469s-13.947-9.488-22.008-20.371S1417.787,763.294,1425.008,758.292Z" transform="translate(-1294.927 -649.866)" fill="#e09b41"/>
          <path id="Path_67" data-name="Path 67" d="M1531.018,731.034s-6.361,5.479-14.321,2.825-12.8-9.357-21.984-9.672-13.018,2.448-13.914,4.776,7.708,4.631,7.708,4.631,4.861-1.491,7.867.037,12,15.231,28.511,17.625,26.3-.319,26.172-6.869S1539.742,727.532,1531.018,731.034Z" transform="translate(-1478.739 -663.025)" fill="#e09b41"/>
          <path id="Path_68" data-name="Path 68" d="M1439.238,761.49c9.074-1.477,15.122,4.157,23.446,5.214a14.442,14.442,0,0,0,9.609-2.222c-4.612-9.877-3.1-20.168-1.831-24.592,1.75-6.089-.337-15.061-.337-15.061h0c-.448-1.906-.323-4.317-.919-5.845-.947-2.421-16.773-9.9-19.366-11.917-3.639-5.454-4.462-12.922-2.129-14.554s15.051,2.589,19.595,2.454,5.091-6.553,16.985-3.09,18.051,26.085,18.051,26.085c15.089,29.931,48.277,45.334,48.277,45.334,8.625,4,18.357,9.392,22.088,18.7a31.875,31.875,0,0,1,2.265,13.652c-.343,4.868-2.53,8.238-5.936,11.51-2.482,2.383-6.985,5.539-6.849,9.437.188,5.279,9.222,19.452,10.337,24.152s-9.54,24.252-9.54,24.252l-13.734.7.132-3.934c.131-3.932,4.516-3.834,7.121-4.806s3.127-9.254,3.277-14.61-5.12-12.619-15.134-21.95-4.839-21.908-7.649-24.789c-2.388-2.447-31.46-6.907-48.724-15.515a65.74,65.74,0,0,1-14.176,2.084c-16.662.863-28.147-10.831-31.393-11.745s-7.724,1.5-7.724,1.5-8.889-.586-8.463-3.044S1430.165,762.969,1439.238,761.49Z" transform="translate(-1426.502 -676.528)" fill="#f2b15a"/>
          <path id="Path_69" data-name="Path 69" d="M1495.632,703.824s4.641-8.1-.059-20.619c-2.326,1.622-9.8,16.528-9.8,16.528S1488.689,707.549,1495.632,703.824Z" transform="translate(-1432.443 -679.627)" fill="#c17110"/>
          <path id="Path_70" data-name="Path 70" d="M1500.184,692.141c2.333-1.633,15.051,2.589,19.6,2.454,0,0,5.453,6.479,3.529,10.682-1.619,2.147-1.3,3.65.995,5.87s2.334,7.842-2.624,7.465c-.947-2.421-16.773-9.9-19.366-11.917C1498.675,701.24,1497.852,693.772,1500.184,692.141Z" transform="translate(-1478.975 -676.157)" fill="#c17110"/>
          <path id="Path_71" data-name="Path 71" d="M1513.282,692.14c.828-.579,2.969-.416,5.581.021,1.106,1.1,2.035,2.441,1.432,3.466-1.029,1.751-5.322,3.328-8.068,3.085C1511.685,695.639,1512.014,693.027,1513.282,692.14Z" transform="translate(-1492.073 -676.157)" fill="#3c2415"/>
          <path id="Path_72" data-name="Path 72" d="M1398.369,766.3s37.8-.977,38.174-46.855a88.926,88.926,0,0,1,4.9,16.4,25.478,25.478,0,0,1,.438,6.926c-.2,1.762-1.714,5.03-.4,6.637,1.217,1.491,4.722.038,6.265-.815a17.559,17.559,0,0,1-10.4,10.117,22.128,22.128,0,0,0,6.864.729,16.778,16.778,0,0,1-14.943,8.512,6.747,6.747,0,0,0,7.039,3.224,38.187,38.187,0,0,1-24.2,2.313,10.12,10.12,0,0,0,5.12,4.1c-2.74-.628-5.589-.5-8.393-.711s-5.719-.817-7.859-2.639S1396.906,768.7,1398.369,766.3Z" transform="translate(-1258.952 -664.938)" fill="#f2b15a"/>
          <g id="Group_78" data-name="Group 78" transform="translate(41.433 38.334)">
            <path id="Path_73" data-name="Path 73" d="M1481.085,727.237c23.28,0,31.671-14.038,32.028-14.652a3.1,3.1,0,0,0-5.356-3.118c-.32.535-7.661,12.3-28.53,11.542a3.1,3.1,0,1,0-.214,6.192Q1480.067,727.238,1481.085,727.237Z" transform="translate(-1476.022 -707.936)" fill="#a10e0d"/>
          </g>
          <path id="Path_74" data-name="Path 74" d="M1468.6,754.42c16.378-2.077,17.289,9.753,25.478,12.027s6.825,12.286,5.915,18.655,7.6,21.175,7.6,21.175h0a88.028,88.028,0,0,0-10.712-11.552c-10.015-9.332-4.839-21.908-7.649-24.789-2.388-2.447-31.46-6.907-48.724-15.515C1440.5,754.42,1452.218,756.494,1468.6,754.42Z" transform="translate(-1378.732 -650.858)" fill="#f7bd69" opacity="0.5"/>
        </g>
        <g id="Group_82" data-name="Group 82" transform="translate(-53.498 682.72)">
          <path id="Path_51" data-name="Path 51" d="M1385.111,830.222s.928,10.646,12.953,14.083,17.351,9.413,17.229,12.161-30.49-1.03-44.574-4.464c-7.557-2.75-3.69-20.157-.711-24.749S1383.323,824.818,1385.111,830.222Z" transform="translate(-1201.497 -386.723)" fill="#3c2415"/>
          <path id="Path_52" data-name="Path 52" d="M1309.894,822.29s-2.546,16.256,4.779,18.4,14.653,4.554,15.468,8.439-19.538,3.48-26.457,2.259-19.105-22.316-19.92-28.015,12.439-12.177,16.6-11.943A10,10,0,0,1,1309.894,822.29Z" transform="translate(-1283.729 -399.986)" fill="#3c2415"/>
          <path id="Path_53" data-name="Path 53" d="M1484.107,823.611l-.367-4.137c-.214-2.854-.609-5.368-1-7.9l-.583-3.824-.7-3.654c-.481-2.41-.9-4.921-1.453-7.252-2.026-9.565-4.45-18.728-6.926-27.9-5.087-18.3-10.557-36-16.721-54.085l-29.494,12.309-46.782-6.573c-1.425,18.327-3.343,37.209-5.779,55.456-1.235,9.136-2.637,18.207-4.348,26.812-.86,4.255-1.83,8.441-2.85,11.947-.475,1.634-1.078,3.361-1.231,3.851-.1.465.7-.443.271.066-11.943,16.479-25.924,31.077-40.124,45.6-13.029,13.322-22.174,30.019-35.381,43.248l10.437,11.892q22.743-17.553,45.267-35.331l22.508-18.008c7.541-6.158,14.849-12.047,22.679-19.169l3.188-3.107.4-.391.64-.752,1.313-1.642a31.784,31.784,0,0,0,2.005-2.906,71.505,71.505,0,0,0,4.783-9.082c2.393-5.386,4.188-10.325,5.879-15.24,3.3-9.77,6.047-19.295,8.621-28.818,2.137-7.99,4.125-15.913,6.039-23.845,3.2,7.088,6.336,14.208,9.321,21.287,3.394,8.208,6.759,16.467,9.6,24.6.782,2.059,1.363,4.031,2.054,6.054l1,3.017.832,2.91c.575,1.956,1.155,3.923,1.493,5.629l.624,2.674c.178.836.192,1.373.328,2.079a26.115,26.115,0,0,1,.333,5.2c.034,1.97-.084,4.207-.115,6.3-.182,4.344-.423,8.773-.755,13.251-.649,8.948-1.456,18-2.379,27.06-1.832,18.118.928,37.313-1.383,55.414l15.1,2.969c4.682-17.924,9.14-35.8,13.36-53.876,2.113-9.034,4.123-18.121,6-27.347q1.416-6.912,2.635-14.063c.365-2.472.792-4.793,1.1-7.4a58.391,58.391,0,0,0,.615-8.539C1484.168,826.816,1484.2,825.05,1484.107,823.611Z" transform="translate(-1276.846 -496.126)" fill="#545b6e"/>
          <path id="Path_54" data-name="Path 54" d="M1399.243,797.98l.084.2s1.668-11.849,5.108-26.471c2.588-11.005,14.38-23.895,20.057-29.6-2.8-9.068-5.735-18.108-8.85-27.247l-29.494,12.309-46.782-6.573c-1.425,18.327-3.343,37.209-5.779,55.456-.631,4.658-1.307,9.293-2.043,13.865,20.472-19.044,52.14-28.74,52.14-28.74,3.2,7.088,6.336,14.208,9.321,21.287C1395.142,787.63,1397.253,792.816,1399.243,797.98Z" transform="translate(-1236.127 -496.126)" fill="#545b6e" opacity="0.5"/>
          <path id="Path_55" data-name="Path 55" d="M1521.457,627.584c-.639-.667-4.686,3.556-7.88,5.334,1.7-3.778,5.11-9.778,3.194-8.445s-10.009,7.779-12.141,10.668-3.3-.934-3.7-5.983c-.257-3.223-3.54,3.76-3.54,8.872a16.011,16.011,0,0,1-1.8,7.745c-10.929,7.94-18.92,12.574-30.195,19.991-5.669,3.747-11.4,7.337-17.122,10.778a140.905,140.905,0,0,1-16.873,8.782l-1.836.651-.906.333-.5.006a8.2,8.2,0,0,0-.964.128l-1.871.076c-2.686.1-5.931.06-9.118-.02-5.13-.128-13.025-2.293-17.9-.968-4.609,1.251-5.488,7.615-5.018,11.935a33.836,33.836,0,0,0,1.4,6c1.134,3.8,2.417,10.848,6.621,12.57,4.334,1.776,12.522-1.008,16.966-1.784,3.636-.634,7.212-1.271,11.285-2.269l3.175-.844c1.224-.4,2.626-.98,3.9-1.511l1.918-.844,1.385-.828,2.74-1.67a162.26,162.26,0,0,0,17.349-13.847q7.857-7.13,15.274-14.446c9.545-9.4,15.777-16.01,24.605-25.555l.083.038s4.22-1.778,8.814-3.556,11.38-6.889,12.658-8.89S1522.1,628.25,1521.457,627.584Z" transform="translate(-1174.773 -586.297)" fill="#ffe5d2"/>
          <path id="Path_56" data-name="Path 56" d="M1415.917,664.107a17.931,17.931,0,0,0-25.567-8.513c-4.736,2.758-9.453,5.556-14.19,8.415-5.282,3.189-10.553,6.473-15.877,9.982-1.331.876-2.658,1.752-4.027,2.716-1.349.928-2.7,1.866-4.155,2.969-.738.561-1.355.986-2.185,1.66l-2.45,2.041c-.816.714-1.692,1.708-2.5,2.57l-1.191,1.341-.808,1.123a137.715,137.715,0,0,0-10.042,16.922c-2.857,5.514-5.573,11.005-8.179,16.523-5.24,11.027-10.175,22.494-14.99,33.651h0c-5.075,2.782-8.25,11.736-8.25,11.736s-1.333,7.785,1.475,10.281c7.172,5.3,9.822,4.053,13.106,3.273s2.487-4.364,2.487-4.364-.781,1.4-4.835.936-3.9-3.331-3.9-3.331,1.247-3.53,2.183-5.558,2.495-2.652,4.889-1.4c4.267,3.742,6.8,3.117,4.622.778s-4.267-9.152-4.267-9.152-.016-.092-.036-.2c6.917-9.519,13.983-18.99,21.2-28.207,3.669-4.711,7.411-9.335,11.187-13.823a116.065,116.065,0,0,1,11.295-12.043l.653-.585c.168-.1.3-.14.435-.216.306-.14.433-.281.82-.459l2.862-1.267c1.09-.493,2.361-1.008,3.646-1.521l3.912-1.524c5.328-2.011,10.865-3.955,16.463-5.823,5-1.672,10.07-3.319,15.148-4.927A17.894,17.894,0,0,0,1415.917,664.107Z" transform="translate(-1266.347 -557.564)" fill="#ffe5d2"/>
          <g id="Group_75" data-name="Group 75" transform="translate(362.408 0)">
            <ellipse id="Ellipse_15" data-name="Ellipse 15" cx="47.298" cy="11.132" rx="47.298" ry="11.132" transform="translate(0 29.801) rotate(-18.363)" fill="#545b6e"/>
            <path id="Path_57" data-name="Path 57" d="M1522.527,614.549c.864,2.606-8.311,8-20.5,12.043s-22.765,5.21-23.629,2.6,8.311-8,20.5-12.043S1521.662,611.943,1522.527,614.549Z" transform="translate(-1452.388 -597.371)" fill="#e69d42"/>
          </g>
          <path id="Path_58" data-name="Path 58" d="M1474.717,657.89c-19.093-.593-51.213-5.532-51.213-5.532-.048.1-.072.216-.12.32a31.484,31.484,0,0,0-3.474-1.136c-20.023-3.8-35.217-2.736-45.488.82l-.018,0s-27.688,7.707-43.718,20.2c-2.361,5.466,6.232,27.954,14.611,33.018,1.567-.335,7.01-1.942,13.584-3.971.236,14.785-.485,31.236-5.563,44.782-10.854,28.945-21.71,42.815-15.679,50.655,37.99,13.869,85.629,9.044,84.809-4.825-6.248-21.708,7.348-44.986,14.536-59.362,4.482-8.964,10.534-21.945,12.478-35.024,12.294-.265,27.155-1.3,30.554-4.618C1483.358,689.94,1478.088,659.6,1474.717,657.89Z" transform="translate(-1237.377 -561.54)" fill="#98a5c9"/>
          <path id="Path_59" data-name="Path 59" d="M1383.2,645.7s-4.33,9.736,3.057,16.79c4.949,4.725.563,11.239-4.085,11.909s-18.75-4.364-16.4-14.1a72.049,72.049,0,0,0,7.5-17.463Z" transform="translate(-1202.312 -567.829)" fill="#ffe5d2"/>
          <path id="Path_60" data-name="Path 60" d="M1378.069,618.144s16.14-2.093,21.979,14.137c3.2,13.224,7.665,13.592,9.018,17.85s-5.318,3.777-7.1,4.42,2.137,14.585-4.508,17.8-21.57,4.48-30.147-11.774S1355.434,623.249,1378.069,618.144Z" transform="translate(-1206.989 -592.496)" fill="#ffe5d2"/>
          <path id="Path_61" data-name="Path 61" d="M1404.182,619.449s2.618,8.665-10.744,13.474c-4.222,1.443-11.229,8.176-8.086,15.15s4.071,11.061,0,7.455-7.2-8.659-10.086-3.608.481,9.619,4.569,9.86c3.848,1.924,2.169,8.312-3.123,9.206s-17.04-13.109-16.18-25.443C1363.963,633.643,1394.38,620.644,1404.182,619.449Z" transform="translate(-1207.311 -591.109)" fill="#3c2415"/>
          <g id="Group_76" data-name="Group 76" transform="translate(149.946 17.349)">
            <path id="Path_62" data-name="Path 62" d="M1362.145,648.936s26.856-14.691,38.221-22.973c-3.207-6.242-17.485-15.753-32.93-5.168S1362.145,648.936,1362.145,648.936Z" transform="translate(-1358.869 -611.852)" fill="#545b6e"/>
            <path id="Path_63" data-name="Path 63" d="M1381.144,628.053s18.5-10.483,20.838-12.817-4.755-2.8-22.9,9.98C1376.636,627.131,1379.773,628.833,1381.144,628.053Z" transform="translate(-1339.648 -613.942)" fill="#545b6e"/>
          </g>
          <path id="Path_64" data-name="Path 64" d="M1419.641,766.049a40.768,40.768,0,0,1-1.433-7.948c-57.6-10.211-62.133-82.664-62.133-82.664.236,14.785-.485,31.237-5.563,44.782-10.854,28.945-21.709,42.815-15.679,50.655C1372.822,784.743,1420.461,779.918,1419.641,766.049Z" transform="translate(-1234.572 -535.371)" fill="#545b6e" opacity="0.5"/>
        </g>
      </g>
    </g>
  </g>
</svg>
