<svg xmlns="http://www.w3.org/2000/svg" width="340.205" height="303.828" viewBox="0 0 340.205 303.828">
  <g id="Group_140" data-name="Group 140" transform="translate(492.47 11.943)">
    <g id="Group_135" data-name="Group 135">
      <path id="Path_129" data-name="Path 129" d="M-416.054,216.42c-.061-6.091.181-12.192.559-18.27a112.575,112.575,0,0,0-1.763-29.6c-1.527-7.728-2.259-16.425,2.311-22.841,1.783-2.5,4.24-4.436,6.274-6.74,7.253-8.216,8.386-20.049,13.165-29.912a43.767,43.767,0,0,1,27.954-22.94c6.473-1.686,14.641-1.19,18.162,4.5a15.162,15.162,0,0,1,1.9,7.042,34.484,34.484,0,0,1-3.766,18c-2.921,5.64-7.409,10.478-9.463,16.488-1.46,4.27-1.593,8.867-2.511,13.285a38.227,38.227,0,0,1-10.392,19.2c-3.936,3.918-8.939,7.277-10.643,12.563-1.235,3.829-.487,8.056-1.542,11.939-1.454,5.346-6.006,9.156-9.429,13.513-6.406,8.153-9.008,18.573-11.448,28.65" fill="#e0ebeb"/>
      <path id="Path_130" data-name="Path 130" d="M-364.769,108.31A250.611,250.611,0,0,0-408.41,210.676" fill="none" stroke="#fff" stroke-miterlimit="10" stroke-width="1"/>
      <path id="Path_131" data-name="Path 131" d="M-421.067,218.7c.214-14.31-7.339-26.592-13.569-38.5-8.685-16.6-19.344-36.912-15.689-57.806,1.856-10.612,7.5-19.537,8.823-30.219.612-4.935.1-9.968.038-14.964A51.406,51.406,0,0,1-438.839,59.1c3.057-8.354,9.964-16.987,16.47-21.092,6.128-3.866,13.293-1,17.345,5.48,5.5,8.793,5.03,21.175,3.827,31.775-1.211,10.681-3.236,21.551-1.561,32.129,1.878,11.853,7.209,22.6,1.768,34.633-2.281,5.047-6.513,9.386-6.75,14.988-.131,3.1,1.02,6.081,1.523,9.138,1.082,6.563-.833,13.2-1.87,19.772a75.449,75.449,0,0,0,2.4,33.781" fill="#cde2e2"/>
      <path id="Path_132" data-name="Path 132" d="M-416.282,64.654c-10.223,55.145-4.3,112.878,7.6,161.382" fill="none" stroke="#fff" stroke-miterlimit="10" stroke-width="1"/>
      <path id="Path_133" data-name="Path 133" d="M-428.55,224.119a53.985,53.985,0,0,0-18.758-36.107c-5.178-4.366-11.665-8.47-12.832-15.142-.378-2.163-.154-4.5-1.177-6.438-1.422-2.705-4.693-3.713-7.532-4.843a36.779,36.779,0,0,1-17.726-15.434c-3.4-5.725-6.58-14.693-5.766-21.458,1.551-12.881,23.309-8.543,30.627-5.189,4.417,2.023,7.267,3.925,9.215,8.621,1.321,3.183,2.236,6.636,4.448,9.28,3.754,4.487,10.423,5.675,14.165,10.173,5.353,6.435,2.455,16.361,5.548,24.139,1.259,3.168,3.469,5.848,5.228,8.769,6.707,11.135,6.51,25.1,4.376,37.92" fill="#e0ebeb"/>
      <path id="Path_134" data-name="Path 134" d="M-472.186,134.028A118.135,118.135,0,0,1-426.58,211.2" fill="none" stroke="#fff" stroke-miterlimit="10" stroke-width="1"/>
      <path id="Path_135" data-name="Path 135" d="M-447.387,196.456v13.272a80.886,80.886,0,0,0,2.373,20.794,25.522,25.522,0,0,0,24.762,18.7h8.574a25.522,25.522,0,0,0,24.762-18.7,80.886,80.886,0,0,0,2.373-20.794V196.456Z" fill="#c69b8a"/>
    </g>
    <g id="Group_138" data-name="Group 138">
      <g id="Group_136" data-name="Group 136">
        <path id="Path_136" data-name="Path 136" d="M-305.074,280.116s-13.335,3.178-16.41,4.634c-5.539,2.623-12.065,7.817-14.592,7.061-1.959-.586-1.3-4.344-.117-7.2.974-2.35,4.326-4.306,7.56-7.54,2.516-2.515,5.649-1.031,7.375-1.474,1.087-.28,16.63-9.5,16.63-9.5" fill="#eac5b0"/>
        <path id="Path_137" data-name="Path 137" d="M-299.207,245.57c2.974,2.974,17.534,3.131,17.534,3.131l-34.442,24.422,2.818,9.706s109.636-11.318,146.866-39.99c19.549-15.056,15.251-28.038,8.433-36.19-19.692-23.547-103.01-6.479-103.01-6.479l-42.919-3.208" fill="#545b6e"/>
        <path id="Path_138" data-name="Path 138" d="M-266.644,280.116s13.335,3.178,16.411,4.634c5.539,2.623,10.489,7.817,13.016,7.061,1.959-.586,1.945-4.344.76-7.2-.974-2.35-3.771-3.969-6.628-7.54-1.8-2.25-5.649-.116-7.374-.56-1.087-.279-16.63-10.412-16.63-10.412" fill="#eac5b0"/>
        <path id="Path_139" data-name="Path 139" d="M-272.348,245.57c-2.974,2.974-12.328,6.839-12.328,6.839l29.236,20.714-2.818,9.706s-106.274-13.1-145.481-39c-19.431-12.838-17.855-27.963-9.818-34.915,26.1-22.579,103.011-8.743,103.011-8.743l37.124,1.732Z" fill="#545b6e"/>
      </g>
      <path id="Path_140" data-name="Path 140" d="M-258.6,141.434c0-8.822,54.114-27.105,54.114-59.627,0-16.2-16.7-32.692-34.189-45.85-17.276-13-35.349-22.6-37.564-24.816-4.411-4.411-4.806-23.084-10.1-23.084-1.7,0-1.573,18.747-.806,24.96.758,6.129,56.347,44.711,56.347,63.517s-43.683,29.612-48.373,29.612c-3.066,0,0-12.7,0-12.7h-15.754s3.754,11.232,0,12.7c-4.69,0-48.372-10.806-48.372-29.612s53.5-57.618,55.324-63.517c1.361-4.391,1.461-24.96-.065-24.96-5.293,0-6.428,18.673-10.839,23.084S-369.6,49.285-369.6,81.807s54.114,50.805,54.114,59.627" fill="#eac5b0"/>
      <path id="Path_141" data-name="Path 141" d="M-267.7,103.418s3.131,11.046,7.817,19.107c4.715,8.113,8.136,16.33,6.867,24.455-1.657,10.621-7.485,14.134-10,19.82,0,5.692,4.123,21.2,10.523,32.058-1.288,4.131-14.28,15.4-34.945,15.4s-33.4-11.346-34.687-15.477c7.347-13.251,10.265-26.291,10.265-31.983-2.513-5.686-8.341-9.2-10-19.82-1.268-8.125,2.152-16.342,6.868-24.455,4.686-8.061,8.427-19.378,8.427-19.378l4.883,1.614s-.962,23.161,15.66,22.5c18.052-.717,13.034-22.339,13.034-22.339Z" fill="#dfe2e6"/>
      <g id="Group_137" data-name="Group 137">
        <path id="Path_142" data-name="Path 142" d="M-296.659,92.71c-8.052-2.628-13.336-11.366-12.857-19.824s6.143-16.176,13.649-20.1a19.538,19.538,0,0,1,7.85-2.361c7.154-.412,13.689,4.448,17.783,10.329a26.768,26.768,0,0,1,5.073,13.578,17.429,17.429,0,0,1-4.817,13.4c-3.5,3.418-9,4.867-13.54,3.036" fill="#5c3e3d"/>
        <path id="Path_143" data-name="Path 143" d="M-301.65,68.333s-6.072,31.647,14.422,31.647,14.364-27.61,13.663-31.647a13.766,13.766,0,0,0-13.477-11.567C-295.336,56.766-300.957,62.064-301.65,68.333Z" fill="#eac5b0"/>
        <path id="Path_144" data-name="Path 144" d="M-276.081,56.972a18.924,18.924,0,0,0-11.283-4.237c-4.8-.27-9.594,2.3-12.573,5.977a7.878,7.878,0,0,0-1.863,3.074c-.162,1.084.16,2.194-.085,3.344-.522,2.454-1.83,4.9-1.344,7.468.16.844.65,1.757,1.5,1.9a1.957,1.957,0,0,0,1.829-1.021c1.339-2.084,2.824-4.314,4.981-5.63a.758.758,0,0,1,.607-.159.747.747,0,0,1,.346.343c.87,1.37,2.063,2.445,3.446,2.346,1.269-.09,2.732-1.293,3.517-1.5,1.639-.437,3.73,2.585,5.209,1.521,1.2-.865,1.011-2.389,1.527-2.631,1.214-.569,3.669,4.686,4.638,5.621,1.622,1.565,3.165.424,3.866-1.369C-269.743,66.836-271.847,60.6-276.081,56.972Z" fill="#5c3e3d"/>
        <path id="Path_145" data-name="Path 145" d="M-288.509,53.778a8.339,8.339,0,0,1-5.183-2c-3.133-3.132-3.334-8.43.2-11.353,2.963-2.449,8.366-3.052,11.659-.93,3.459,2.229,4.45,7.468,2.357,10.932a6.87,6.87,0,0,1-6.368,3.324" fill="#5c3e3d"/>
      </g>
    </g>
    <g id="Group_139" data-name="Group 139">
      <path id="Path_146" data-name="Path 146" d="M-178.788,191.87c-.5-.146-1.014-.271-1.525-.379-2.357-.5-4.771-.65-7.163-.943a5.216,5.216,0,0,1-2.941-1.02,4.395,4.395,0,0,1-1.2-2.787c-.32-2.577-.475-5.088-.583-7.683a22.7,22.7,0,0,0-1.713-7.7c-.812-1.965-2.128-4.991-3.865-6.313a1,1,0,0,0-1.155-.1,1.451,1.451,0,0,0-.341.4q-.84,1.279-1.678,2.559a3.6,3.6,0,0,1-.853,1.008,3.662,3.662,0,0,1-1.05.458l-2.468.775a2.272,2.272,0,0,1-.9.153,2.365,2.365,0,0,1-1.1-.544,28.724,28.724,0,0,0-4.741-2.8.635.635,0,0,0-.876.427,27.728,27.728,0,0,0-.621,4.024,17.225,17.225,0,0,0,.288,3.716c.29,2.423.3,5.244-1.372,7.2-1.744,2.047-4.747,2.468-7.429,2.274-7.277-.525-15.42-1.625-22.62.745-8.9,2.93-13.059,11.73-14.578,20.442-.962,5.521-.466,11.52,2.6,16.209s9.094,7.655,14.469,6.067a19.613,19.613,0,0,0,5.167-2.664c5.743-3.809,11.068-8.246,16.993-11.765s12.656-6.129,19.538-5.778c3.525.18,6.973,1.129,10.5,1.36,2.2.144,5.181-.828,4.9-3.012-.2-1.556-1.991-2.285-3.5-2.711l-12.285-3.459c0-.469,1.8-1.667,2.8-1.886,3.325-.728,4.968-1.747,8.367-1.911a75.754,75.754,0,0,1,10.67.775c.843.234,1.642.612,2.488.84a3.774,3.774,0,0,0,2.571-.073,1.942,1.942,0,0,0,1.143-2.13,2.658,2.658,0,0,0-.937-1.247A13.518,13.518,0,0,0-178.788,191.87Z" fill="#d4c3b8"/>
      <path id="Path_147" data-name="Path 147" d="M-249.754,222.346c-5.361,1.882-7.922,7.205-5.807,12.174,2.223,5.222,6.44,9.293,4.735,15.575-2.744,10.105-16.284,9.55-20.619,1.1-.845-1.646-1.173-3.95.268-5.11,1.952-1.572,6.5,4.285,8.072,5.135,2.337,1.266,5.623.779,6.921-1.706,1.492-2.857-.064-6.683-1.477-9.239-4.873-8.811-3.566-18.569,5.978-20.479" fill="#d4c3b8"/>
    </g>
  </g>
</svg>
