<svg xmlns="http://www.w3.org/2000/svg" width="411.513" height="444.674" viewBox="0 0 411.513 444.674">
  <g id="Group_116" data-name="Group 116" transform="translate(-729 -227)">
    <g id="Group_115" data-name="Group 115" transform="translate(487.871 75.815)">
      <path id="Path_97" data-name="Path 97" d="M319.941,435.386a416.386,416.386,0,0,1-11.539-43.2c-.809-3.836-1.565-7.789-1.009-11.676.867-6.042,4.78-11.083,9.027-15.218s9.02-7.748,12.509-12.613c6.992-9.75,7.771-22.845,11.916-34.275,5.652-15.586,18.137-28.213,33.091-33.472,7.718-2.716,16.937-3.266,23.312,2.084,5.547,4.657,7.587,12.786,7.1,20.268-.875,13.564-8.717,25.522-17.637,35.293-5.185,5.68-10.951,11.073-14.132,18.219-4.275,9.6-3.3,21.112-7.626,30.69-8.054,17.858-32.005,24.157-37.247,43.154" transform="translate(49.832 12.621)" fill="#ddeded"/>
      <path id="Path_98" data-name="Path 98" d="M327.636,443.711c-2.575-18.721-8.61-37.943-19.216-49.486-4.229-4.6-6.657-15.4-3.935-21.349,1.021-2.231,2.854-4.007,3.963-6.194,4.11-8.108-2.845-17.1-8.4-24.31a99.715,99.715,0,0,1-20.094-50.505c-.989-9.794,1.17-22.1,10.6-25.092,6.164-1.954,12.864,1.216,17.695,5.491,15.774,13.956,17.9,37.2,20.189,58.073a8.6,8.6,0,0,0,1.223,4.2c1.365,1.888,3.921,2.361,6.052,3.317,8.539,3.833,9.943,15.091,10.113,24.4.263,14.425-5.427,56.068-18.491,79.436" transform="translate(29.12 0)" fill="#ddeded"/>
      <path id="Path_99" data-name="Path 99" d="M347.679,427.668c1-22.519,7.294-59.571-6.878-77.415-5.017-6.319-13.367-6.2-18.481-12.385-3.543-4.289-4.852-10.773-7.336-16.174-6.766-14.711-23.636-19.486-34.5-9.769-2.007,1.795-3.872,4.028-6.213,4.9-3.252,1.209-6.666-.446-9.969-1.386-25.743-7.327-32.611,35.117-7.361,36.777,6.759.446,13.618-1.495,20.256.207,4.75,1.219,9.883,5.873,9.322,12.12-.267,2.959-1.789,5.508-2.2,8.441-.814,5.77,2.98,11.178,7.233,13.157s8.9,1.549,13.409,1.933c16.539,1.41,34.967,9.1,42.724,39.594" transform="translate(0 30.672)" fill="#ddeded"/>
      <path id="Path_100" data-name="Path 100" d="M379.373,296.356c-38.214,39.708-66.095,98.1-68.861,210.531" transform="translate(52.329 22.756)" fill="none" stroke="#c6e4e4" stroke-miterlimit="10" stroke-width="1"/>
      <path id="Path_101" data-name="Path 101" d="M287.867,274.329c12.111,14.621,18.2,33.205,22.7,51.609a397.656,397.656,0,0,1,5.384,162.645" transform="translate(35.25 6.143)" fill="none" stroke="#c6e4e4" stroke-miterlimit="10" stroke-width="1"/>
      <path id="Path_102" data-name="Path 102" d="M247.2,320.626c76.5.412,102.714,95.773,103.763,155.612" transform="translate(4.58 41.06)" fill="none" stroke="#c6e4e4" stroke-miterlimit="10" stroke-width="1"/>
      <path id="Path_103" data-name="Path 103" d="M378.49,366.867v14.342c0,56.864-21.429,73.04-21.429,73.04H309.879s-21.431-16.176-21.431-73.04V366.867Z" transform="translate(35.688 75.935)" fill="#edf6f7"/>
    </g>
    <g id="Group_114" data-name="Group 114" transform="translate(897 227)">
      <path id="Path_78" data-name="Path 78" d="M-392.794,736.131a59.034,59.034,0,0,1-7.465-.714c-1.286-24.7,1.048-50.583,2.061-75.4l19.034,1.016a221.628,221.628,0,0,0-9.417,40.8c-.292,2.2-3.851,34.282-4.213,34.294" transform="translate(469.117 -321.123)" fill="#eac5b0"/>
      <path id="Path_79" data-name="Path 79" d="M-372.556,730.626c-1.566-.279-2.49.418-3.534,1.372-.606.554-1.019,1.338-1.75,1.735a5.741,5.741,0,0,1-2.318.561c-4.577.461-15.122.27-9.5,7.925,5.1,6.951,18.65,4.184,26.476,2.3a2.686,2.686,0,0,0,1.436-.6,3.673,3.673,0,0,0,.793-1.553c.893-3.271,2.114-7.356-1.908-8.726-1.716-.585-3.3.551-5.112-.079-1.488-.515-3.013-2.651-4.579-2.93" transform="translate(440.647 -321.123)" fill="#3b455a"/>
      <path id="Path_80" data-name="Path 80" d="M-435.823,674.916l38.816-.753c50.9-.987,19.684-99.915,27.64-150.2.617-3.9,1.218-7.954.094-11.738-2.125-7.157-9.79-11.242-17.129-12.613-11.4-2.13-32.36.837-38.208,12.7-6.182,12.532-5.144,34.914-6.643,48.762a841.731,841.731,0,0,0-4.57,113.85" transform="translate(492.517 -321.123)" fill="#3b455a"/>
      <path id="Path_81" data-name="Path 81" d="M-443.014,736.4a59.086,59.086,0,0,1-7.489.4c-4.941-24.232-6.478-50.176-9.163-74.866l18.973-1.824a221.8,221.8,0,0,0-3.251,41.747c.038,2.215,1.286,34.474.93,34.54" transform="translate(589.677 -321.123)" fill="#eac5b0"/>
      <path id="Path_82" data-name="Path 82" d="M-444.506,732.184c-1.59-.043-2.4.783-3.291,1.881a10.135,10.135,0,0,1-1.473,1.976,5.742,5.742,0,0,1-2.208.9c-4.458,1.135-14.915,2.513-8.222,9.249,6.078,6.116,19.065,1.367,26.525-1.663a2.7,2.7,0,0,0,1.33-.807,3.686,3.686,0,0,0,.552-1.654c.4-3.368,1-7.588-3.183-8.346-1.783-.323-3.177,1.035-5.067.682-1.548-.289-3.373-2.175-4.963-2.217" transform="translate(582.209 -321.123)" fill="#3b455a"/>
      <path id="Path_83" data-name="Path 83" d="M-457.222,678.785l38.274-6.511q4.422-76.242,5.018-152.643c.031-3.947.022-8.046-1.651-11.622-3.165-6.762-11.351-9.661-18.812-9.928-11.6-.412-31.877,5.635-35.9,18.23-4.251,13.312.1,35.291.675,49.208a841.839,841.839,0,0,0,12.4,113.266" transform="translate(575.376 -321.123)" fill="#3b455a"/>
      <g id="Group_111" data-name="Group 111" transform="translate(0 68.412)">
        <path id="Path_84" data-name="Path 84" d="M-395.617,409.306a2.715,2.715,0,0,1,.754-.045c2.272.305,3.273,1.824,5.367,2.736.933.407,3.117-1.041,3.463,1.057.129.775.174,2.719.431,4.373.375,2.412,2.308,5.242,4.257,7.206,7.661,7.718,17.209,13.136,26.821,18.2a3.919,3.919,0,0,0,1.744.585c1.109.007,1.988-.886,2.742-1.7a83.127,83.127,0,0,1,11.489-10.267c3.69-2.728,7.723-5.2,12.229-6.065s9.584.111,12.732,3.45a10.9,10.9,0,0,1,2.687,9.545c-1.751,8.341-13.975,10.706-20.757,13.419a147.906,147.906,0,0,1-19.725,6.33,6.388,6.388,0,0,1-2.528.261,6.478,6.478,0,0,1-2.442-1.167,322.586,322.586,0,0,1-27.878-21.351c-2.477-2.072-3.55-5.182-5.858-7.078-1.473-1.209-3.5-1.1-5.141-1.932a17.74,17.74,0,0,1-4.753-3.686c-2.377-2.692-1.59-6.316-1.213-9.55a3.837,3.837,0,0,1,.585-1.975,5.558,5.558,0,0,1,2.956-1.8,10.869,10.869,0,0,1,2.038-.544" transform="translate(401.628 -389.535)" fill="#eac5b0"/>
        <path id="Path_85" data-name="Path 85" d="M-419.165,440.68q-6.585-7.969-13.169-15.937c.282.341,22.886-21.394,24.275-22.641,5.306-4.763,10.837-9.657,17.646-11.768,14.539-4.507,27.312,10.933,18.7,24.113-9.352,14.309-24.955,26.25-41.016,31.981a2.151,2.151,0,0,1-1.082.184,2.2,2.2,0,0,1-1.192-.9l-4.158-5.032" transform="translate(490.577 -389.535)" fill="#ccd2d9"/>
      </g>
      <path id="Path_86" data-name="Path 86" d="M-399.267,402.991c10.633,10.748,18.6,24.556,23.4,38.859,8.5,25.328,8.659,52.372,8.737,78.871q.038,13.23.079,26.459c.026,8.679-.7,10.546-9.577,9.4-16.454-2.121-33.557-5.724-48.466-13.49-7.095-3.7-13.725-8.363-21.163-11.273-10.819-4.232-21.912-2.316-32.616-5.069a283.341,283.341,0,0,0,10.357-43c2.456-15.83,4.688-33.1,8.288-48.711,2.159-9.37,6.175-18.124,10.26-26.741,2.746-5.79,5.653-11.718,10.316-15.906,14.047-12.609,29.8-.11,40.388,10.6" transform="translate(535.25 -321.123)" fill="#ccd2d9"/>
      <path id="Path_87" data-name="Path 87" d="M-445.66,367.568c1.96,4.281,5.16,7.85,7.775,11.767,2.543,3.811,3.457,7.259,4.132,11.677.487,3.192,1.628,5.686,5.472,6.232,7.249,1.031,5.176-4.959,6.823-9.317,1.883-4.982,5.9-8.918,8.7-13.363,8.106-12.848,5.792-38.241-11.056-43.659-18.422-5.924-27.793,23.668-21.848,36.663" transform="translate(545.002 -321.123)" fill="#eac5b0"/>
      <path id="Path_88" data-name="Path 88" d="M-444.134,355.135c2.091.084,4.392.25,5.942,1.655s1.383,4.469-.665,4.8c-1.856.3-4.259-1.638-5.393-.224-.662.827-.081,2.036.422,3a17.636,17.636,0,0,1,1.607,11.958c.764.708,1.955-.026,2.625-.763a38.484,38.484,0,0,0,7.638-12.542,7.688,7.688,0,0,0,2.807,2.717c-.694-1.733-.255-3.629.174-5.4,1.574-6.5,2.645-14.113-1.893-19.423a16.894,16.894,0,0,0-9.835-5.164,49.376,49.376,0,0,0-11.24-.35c-1.6.072-3.574.418-3.959,1.9,3.512,1.408,7.145,4.151,8.9,7.476.54,1.021,2.652,10.349,2.866,10.357" transform="translate(572.843 -321.123)" fill="#3b455a"/>
      <path id="Path_89" data-name="Path 89" d="M-458.075,339.521q.192.14.378.28c1.591,1.212,3.084,2.685,5.01,3.224,2.777.774,5.759-.565,8.493.381,3.056,1.057,5.064,4.711,7.295,6.874a32.322,32.322,0,0,0,13.061,7.634,32.6,32.6,0,0,0,7.657,1.369,13.535,13.535,0,0,0,3.9-.02c1.538-.415,1.485-1.114-.155-1.64-5.143-1.647-6.755-8.871-6.366-13.66.306-3.78,1.61-7.731.168-11.238-1.1-2.679-3.466-4.063-5.752-5.6-2.521-1.692-5.254-1.236-8.117-2.049-2.986-.848-5.419-3.2-8.465-3.8-3.217-.634-6.433.792-9.652,1.417a19.96,19.96,0,0,1-8.07-.1c-2.371-.522-4.685-1.481-7.112-1.459-3.58.033-6.872,2.268-8.961,5.175-2.955,4.112-4.866,11.149-3.825,16.563-.161-.84,2.666-3.883,3.248-4.538a7.656,7.656,0,0,1,4.585-2.9c4.242-.506,9.272,1.605,12.682,4.081" transform="translate(579.361 -321.123)" fill="#3b455a"/>
      <path id="Path_90" data-name="Path 90" d="M-478.334,502.57a2.672,2.672,0,0,1-.035-.755c.335-2.267,1.868-3.247,2.807-5.33.42-.927-1-3.129,1.1-3.448.776-.118,2.721-.138,4.378-.374,2.416-.342,5.272-2.237,7.263-4.161a77.288,77.288,0,0,0,7.684-8.314,130.878,130.878,0,0,0,12.72-20.482,35.4,35.4,0,0,1-17.812-31.9,8.186,8.186,0,0,1,.908-3.875,7.069,7.069,0,0,1,2.471-2.288c10.237-6.241,15.713,3.726,20.461,11.573a117.324,117.324,0,0,1,7.871,15.34c3.1,7.4.653,13.861-3.632,20.4-4.539,6.93-9.262,13.867-15.195,19.7-2.883,2.833-6.093,4.92-9.289,7.33-3.16,2.381-1.923,3.655-4.153,6.449-1.244,1.558-2.219,3.383-3.737,4.689-2.723,2.34-6.337,1.505-9.566,1.086a3.866,3.866,0,0,1-1.967-.611,5.571,5.571,0,0,1-1.763-2.981,10.849,10.849,0,0,1-.517-2.045" transform="translate(594.825 -321.123)" fill="#eac5b0"/>
      <path id="Path_91" data-name="Path 91" d="M-423.021,437.469l-16.11,12.956c.344-.276-21.088-23.168-22.317-24.575-4.691-5.367-9.512-10.964-11.532-17.8-4.315-14.6,11.294-27.164,24.36-18.374,14.182,9.542,25.915,25.3,31.432,41.437a2.156,2.156,0,0,1,.169,1.086,2.193,2.193,0,0,1-.915,1.179l-5.087,4.091" transform="translate(580.029 -321.123)" fill="#ccd2d9"/>
      <g id="Group_112" data-name="Group 112" transform="translate(15.655 82.86)">
        <path id="Path_92" data-name="Path 92" d="M-327.591,409.17c-4.012,9.311-12.637,16.187-18.8,24.069-4.441,5.679-8.707,12.136-8.713,19.345,0,1.05.267,2.334,1.27,2.64a2.071,2.071,0,0,0,1.987-.736c.514-.538.883-1.205,1.428-1.712a4.614,4.614,0,0,1,5.442-.177,10.368,10.368,0,0,1,3.57,4.539c.54,1.134,1.262,2.488,2.518,2.529a2.762,2.762,0,0,0,2.11-1.3c1.625-2.13,2.122-4.969,3.808-7.052a3.147,3.147,0,0,1,1.606-1.171c4.458-1.092-2.063,10.707-2.6,11.657-1.834,3.213-4.231,6.348-7.782,7.743-4,1.573-8.667.615-12.65,2.233-1.5.61-2.836,1.561-4.3,2.262-11.019,5.289-24.454-3.584-29.307-13.488-2.929-5.978-2.222-13.247.473-19.334a33.219,33.219,0,0,1,25.576-19.114,8.312,8.312,0,0,0,3.549-.943,6.822,6.822,0,0,0,2.035-2.487,43.047,43.047,0,0,0,4.683-12.585c.216-1.069.979-2.484,1.964-2.017.369.174,1.569,2.723,1.983,3.614a10.794,10.794,0,0,1,4.738-.366,9.912,9.912,0,0,1,2.05-2.592c1.178.342,3.073,6.851,4.3,9.952,1.086-1.694,3.179-4.37,4.264-6.064a4.468,4.468,0,0,1,2.448-2.251c1.11-.254,3.9-.5,2.349,2.8" transform="translate(390.695 -403.983)" fill="#3c4251"/>
        <path id="Path_93" data-name="Path 93" d="M-326.338,471.415c-5.993.916-8,5.716-5.839,10.715,3.668,8.5,7.141,18,.048,26.218a11.711,11.711,0,0,1-10.058,3.631c-.733-.089-1.573-.35-1.8-1.018s.3-1.37.83-1.881c2.065-2,5.535-1.2,7.782-4.288,7.2-9.895-2.706-21.1-.916-29.4.7-3.234,2.058-5.666,7.963-6.549" transform="translate(344.048 -403.983)" fill="#3c4251"/>
      </g>
      <g id="Group_113" data-name="Group 113" transform="translate(156.754 326.258)">
        <path id="Path_94" data-name="Path 94" d="M-516.08,685.747c2.219,9.152,3.507,20.7,7.117,29.4,3.624,8.735,10.1,13.852,14.584,22.106a24.929,24.929,0,0,1,2.3,5.284,38.281,38.281,0,0,1,.79,4.688,52.363,52.363,0,0,0,2.819,11.059c.539,1.44,1.137,3.084.427,4.448-1.077,2.07-2.28,3.588,1,2.9,2.042-.429,4.29-1.094,5.239-3.156.821-1.786.256-3.858-.06-5.8-2.453-15.041,13.494-20.074,14.4-33.47.465-6.911-5.978-12.488-9.746-17.516a77.749,77.749,0,0,1-11.935-22.075,54.817,54.817,0,0,1-2.748-14.725c-.19-4.334-.4-10.137,1.739-14.048a6.165,6.165,0,0,0,.725-1.54c-.04-.764-1.578-.245-2.278.063s-1.317.9-2.082.911a2.953,2.953,0,0,1-1.227-.338l-2.26-.993c-.58-.255-1.376-.468-1.522-1.084-.126-.535.78-4.115.267-4.431s-3.308,1.048-4.57,1.966l-6.924,5.042a7.345,7.345,0,0,0-1.548,1.37c-1.138,1.474-.986,3.59-.337,5.335s1.724,3.311,2.338,5.068.676,3.9-.548,5.3a2.291,2.291,0,0,1-1.3.8,2.275,2.275,0,0,1-2.044-.9,6.649,6.649,0,0,1-1.019-2.1q-2.9-8.382-5.423-16.887c-.279-.939-.858-2.093-1.829-1.967a1.815,1.815,0,0,0-1.185.947,6.424,6.424,0,0,0-.9,4.45,16.019,16.019,0,0,0,1.323,3.638c1.779,4.1,2.294,8.5,3.269,12.83Q-517.706,679.047-516.08,685.747Z" transform="translate(523.899 -647.381)" fill="#3c4251"/>
        <path id="Path_95" data-name="Path 95" d="M-525.665,701.128c3.85,7.136,11.513,12.108,13.645,19.931,1.428,5.24.062,10.653-.892,15.845a30.5,30.5,0,0,0,1.5,16.7c.473,1.32,1,2.845.284,4.051a4.223,4.223,0,0,1-1.118,1.132c-.9.691-2.921,2.135-4.176,1.548-1.46-.683-.971-3.235-1.032-4.48a12.774,12.774,0,0,0-.371-2.261c-1.3-5.552-4.388-10.55-4.6-16.363-.144-3.87,1.046-7.821.069-11.568" transform="translate(569.004 -647.381)" fill="#3c4251"/>
        <path id="Path_96" data-name="Path 96" d="M-527.859,734.3c-7.013-2.8-27.036-6-26.079-17.009-.041-.063-.086-.117-.127-.181a.688.688,0,0,1,.321-1.043c.04-.186.034-.355.086-.546a.374.374,0,0,1,.729.123c-.01.149,0,.288-.005.434.061.031.131.022.185.07,3.925,3.485,7.785,6.8,12.823,8.552,3.706,1.288,7.646,1.531,11.441,2.44,5.685,1.361,10.738,4.453,13.776,9.577a18.136,18.136,0,0,1,1.4,15.8c-1.589,4.04-6.912,10.448-11.94,9.828-1.924-.237-3.159-1.367-2.538-3.4.755-2.479,4.837-3.419,6.357-5.367C-515.754,746.295-520.379,737.292-527.859,734.3Z" transform="translate(598.869 -647.381)" fill="#3c4251"/>
      </g>
    </g>
  </g>
</svg>
