<svg xmlns="http://www.w3.org/2000/svg" width="173.759" height="118.416" viewBox="0 0 173.759 118.416">
  <g id="Group_222" data-name="Group 222" transform="translate(-296.754 -802.258)">
    <g id="Group_141" data-name="Group 141" transform="translate(383.754 802.258)">
      <path id="Path_94" data-name="Path 94" d="M-516.08,685.747c2.219,9.152,3.507,20.7,7.117,29.4,3.624,8.735,10.1,13.852,14.584,22.106a24.929,24.929,0,0,1,2.3,5.284,38.281,38.281,0,0,1,.79,4.688,52.363,52.363,0,0,0,2.819,11.059c.539,1.44,1.137,3.084.427,4.448-1.077,2.07-2.28,3.588,1,2.9,2.042-.429,4.29-1.094,5.239-3.156.821-1.786.256-3.858-.06-5.8-2.453-15.041,13.494-20.074,14.4-33.47.465-6.911-5.978-12.488-9.746-17.516a77.749,77.749,0,0,1-11.935-22.075,54.817,54.817,0,0,1-2.748-14.725c-.19-4.334-.4-10.137,1.739-14.048a6.165,6.165,0,0,0,.725-1.54c-.04-.764-1.578-.245-2.278.063s-1.317.9-2.082.911a2.953,2.953,0,0,1-1.227-.338l-2.26-.993c-.58-.255-1.376-.468-1.522-1.084-.126-.535.78-4.115.267-4.431s-3.308,1.048-4.57,1.966l-6.924,5.042a7.345,7.345,0,0,0-1.548,1.37c-1.138,1.474-.986,3.59-.337,5.335s1.724,3.311,2.338,5.068.676,3.9-.548,5.3a2.291,2.291,0,0,1-1.3.8,2.275,2.275,0,0,1-2.044-.9,6.649,6.649,0,0,1-1.019-2.1q-2.9-8.382-5.423-16.887c-.279-.939-.858-2.093-1.829-1.967a1.815,1.815,0,0,0-1.185.947,6.424,6.424,0,0,0-.9,4.45,16.019,16.019,0,0,0,1.323,3.638c1.779,4.1,2.294,8.5,3.269,12.83Q-517.706,679.047-516.08,685.747Z" transform="translate(523.899 -647.381)" fill="#3c4251"/>
      <path id="Path_95" data-name="Path 95" d="M-525.665,701.128c3.85,7.136,11.513,12.108,13.645,19.931,1.428,5.24.062,10.653-.892,15.845a30.5,30.5,0,0,0,1.5,16.7c.473,1.32,1,2.845.284,4.051a4.223,4.223,0,0,1-1.118,1.132c-.9.691-2.921,2.135-4.176,1.548-1.46-.683-.971-3.235-1.032-4.48a12.774,12.774,0,0,0-.371-2.261c-1.3-5.552-4.388-10.55-4.6-16.363-.144-3.87,1.046-7.821.069-11.568" transform="translate(569.004 -647.381)" fill="#3c4251"/>
      <path id="Path_96" data-name="Path 96" d="M-527.859,734.3c-7.013-2.8-27.036-6-26.079-17.009-.041-.063-.086-.117-.127-.181a.688.688,0,0,1,.321-1.043c.04-.186.034-.355.086-.546a.374.374,0,0,1,.729.123c-.01.149,0,.288-.005.434.061.031.131.022.185.07,3.925,3.485,7.785,6.8,12.823,8.552,3.706,1.288,7.646,1.531,11.441,2.44,5.685,1.361,10.738,4.453,13.776,9.577a18.136,18.136,0,0,1,1.4,15.8c-1.589,4.04-6.912,10.448-11.94,9.828-1.924-.237-3.159-1.367-2.538-3.4.755-2.479,4.837-3.419,6.357-5.367C-515.754,746.295-520.379,737.292-527.859,734.3Z" transform="translate(598.869 -647.381)" fill="#3c4251"/>
    </g>
    <g id="Group_221" data-name="Group 221" transform="translate(296.754 802.258)">
      <path id="Path_94-2" data-name="Path 94" d="M-475.255,685.747c-2.219,9.152-3.507,20.7-7.117,29.4-3.624,8.735-10.1,13.852-14.584,22.106a24.928,24.928,0,0,0-2.3,5.284,38.281,38.281,0,0,0-.79,4.688,52.363,52.363,0,0,1-2.819,11.059c-.539,1.44-1.137,3.084-.427,4.448,1.077,2.07,2.28,3.588-1,2.9-2.042-.429-4.29-1.094-5.239-3.156-.821-1.786-.256-3.858.06-5.8,2.453-15.041-13.494-20.074-14.4-33.47-.465-6.911,5.978-12.488,9.746-17.516a77.749,77.749,0,0,0,11.935-22.075,54.816,54.816,0,0,0,2.748-14.725c.19-4.334.4-10.137-1.739-14.048a6.165,6.165,0,0,1-.725-1.54c.04-.764,1.578-.245,2.278.063s1.317.9,2.082.911a2.953,2.953,0,0,0,1.227-.338l2.26-.993c.58-.255,1.376-.468,1.522-1.084.126-.535-.78-4.115-.267-4.431s3.308,1.048,4.57,1.966l6.924,5.042a7.345,7.345,0,0,1,1.548,1.37c1.138,1.474.986,3.59.337,5.335s-1.724,3.311-2.338,5.068-.676,3.9.548,5.3a2.291,2.291,0,0,0,1.3.8,2.275,2.275,0,0,0,2.044-.9,6.649,6.649,0,0,0,1.019-2.1q2.9-8.382,5.423-16.887c.279-.939.858-2.093,1.829-1.967a1.815,1.815,0,0,1,1.185.947,6.424,6.424,0,0,1,.9,4.45,16.019,16.019,0,0,1-1.323,3.638c-1.779,4.1-2.294,8.5-3.269,12.83Q-473.629,679.047-475.255,685.747Z" transform="translate(554.196 -647.381)" fill="#3c4251"/>
      <path id="Path_95-2" data-name="Path 95" d="M-510.776,701.128c-3.85,7.136-11.513,12.108-13.645,19.931-1.428,5.24-.062,10.653.892,15.845a30.494,30.494,0,0,1-1.5,16.7c-.473,1.32-1,2.845-.284,4.051a4.223,4.223,0,0,0,1.118,1.132c.9.691,2.921,2.135,4.176,1.548,1.46-.683.971-3.235,1.032-4.48a12.774,12.774,0,0,1,.371-2.261c1.3-5.552,4.388-10.55,4.6-16.363.144-3.87-1.046-7.821-.069-11.568" transform="translate(554.196 -647.381)" fill="#3c4251"/>
      <path id="Path_96-2" data-name="Path 96" d="M-538.447,734.3c7.013-2.8,27.036-6,26.079-17.009.041-.063.086-.117.127-.181a.688.688,0,0,0-.321-1.043c-.04-.186-.034-.355-.086-.546a.374.374,0,0,0-.729.123c.01.149,0,.288.005.434-.061.031-.131.022-.185.07-3.925,3.485-7.785,6.8-12.823,8.552-3.706,1.288-7.646,1.531-11.441,2.44-5.685,1.361-10.738,4.453-13.776,9.577a18.136,18.136,0,0,0-1.4,15.8c1.589,4.04,6.912,10.448,11.94,9.828,1.924-.237,3.159-1.367,2.538-3.4-.755-2.479-4.837-3.419-6.357-5.367C-550.552,746.295-545.927,737.292-538.447,734.3Z" transform="translate(554.196 -647.381)" fill="#3c4251"/>
    </g>
  </g>
</svg>
