<svg xmlns="http://www.w3.org/2000/svg" width="71.177" height="76.952" viewBox="0 0 71.177 76.952">
  <g id="Group_221" data-name="Group 221" transform="translate(-9 -10)">
    <path id="Path_149" data-name="Path 149" d="M51.478,81.661c.33-.512-.5-1.191-.817-1.484a2.363,2.363,0,0,1-.85-1.445c-.268-1.354-.007-2.864-.491-4.169a4.794,4.794,0,0,0-1.3-1.735c-.458-.427-.111-3.222.494-3.938.271-.321.226-.52.106-.52a3.266,3.266,0,0,0-.429.029,5.663,5.663,0,0,0-2.563,1.17c-.4.3-1.762,2.032-2.306,1.416-.257-.291-.2-1-.2-1.35a24.8,24.8,0,0,1,.211-3.147c.035-.3-.343-.37-.532-.3-1.046.364-6.661,5.3-7.749,6.433a17.1,17.1,0,0,0-2.713,4.016c-.363.7-.7,1.415-1.015,2.138-.094.211-.787,1.425-.686,1.617A46.705,46.705,0,0,0,44.768,96.975l.011-.019c-.683-1.336-.564-3.067-.547-4.523a51.971,51.971,0,0,1,.663-7.175c.127-.844.455-.506,1.053-.378a5.28,5.28,0,0,0,1.11.124A4.025,4.025,0,0,0,49.841,83.9C50.126,83.628,51.416,81.757,51.478,81.661Z" transform="translate(-13.397 -15.317)" fill="#545b6e"/>
    <path id="Path_150" data-name="Path 150" d="M88.838,28.086c-.212-.028-21.343-2.953-31.688-13.809-.033-.034-.073-.06-.108-.092-.008-.011-.012-.021-.02-.031C54.13,10.42,45.954,12.57,42.25,13.647a44.784,44.784,0,0,0-14.2,7.036c-1.936,1.441-5.963,4.3-7.79,7.141l.006,0a2.09,2.09,0,0,0-.5,1.236,81.913,81.913,0,0,0,3.244,24.866,66.5,66.5,0,0,0,3.151,8.555,4.566,4.566,0,0,0,3.429-2.869c1.468-3.3,3.816-6.095,5.853-9.088,1.96-2.882,3.608-5.927,5.693-8.737a61.443,61.443,0,0,1,4.156-5.067c.51-.553,1.018-1.107,1.562-1.63a18.389,18.389,0,0,0,1.329-1.351,3.544,3.544,0,0,1,1.3-1.094.678.678,0,0,1,.2-.056c.137-.011.05.285.043.359-.113,1.278-.176,2.559-.17,3.841a22.456,22.456,0,0,0,.252,3.774,2.844,2.844,0,0,0,.937,1.841c.829.649,2.087.324,3.089.457a7.736,7.736,0,0,1,2.847.87,7.054,7.054,0,0,1,3.188,3.7c.834,2.348,3.029,3.234,5.361,4.019,2.984,1.005,8.946.7,7.93,5.068a14.768,14.768,0,0,1-3.175,5.747A7.247,7.247,0,0,1,65.35,65c-2.276.284-4.533-.239-6.808-.239s-3.3.874-4.648,2.535a23.382,23.382,0,0,0-4.484,8.875,27.933,27.933,0,0,0-.718,5.361A45.607,45.607,0,0,0,48.34,86.5a47.124,47.124,0,0,0,5.525,2.353,2.589,2.589,0,0,0,.867.147,2.538,2.538,0,0,0,.616-.074c.361-.087,8.954-2.236,17.639-10.649,7.88-7.632,17.383-22.149,17.916-47.963A2.277,2.277,0,0,0,88.838,28.086Z" transform="translate(-10.725 -2.048)" fill="#545b6e"/>
  </g>
</svg>
