<svg xmlns="http://www.w3.org/2000/svg" xmlns:xlink="http://www.w3.org/1999/xlink" width="320" height="568" viewBox="0 0 320 568">
  <defs>
    <clipPath id="clip-path">
      <rect id="Rectangle_102" data-name="Rectangle 102" width="320" height="568" fill="#fff" stroke="#707070" stroke-width="1"/>
    </clipPath>
  </defs>
  <g id="Mask_Group_1" data-name="Mask Group 1" clip-path="url(#clip-path)">
    <g id="Group_85" data-name="Group 85">
      <rect id="Rectangle_78" data-name="Rectangle 78" width="322.194" height="568.055" transform="translate(-1.922)" fill="#887f74"/>
      <g id="Group_80" data-name="Group 80" transform="translate(-41 450.839)">
        <path id="Path_49" data-name="Path 49" d="M1365.033,767.9s-73.668-10.937-167.859,17.245c-117.641,35.2-156.658-4.761-208.217-28.182V874.042h376.075Z" transform="translate(-984.495 -756.963)" fill="#545b6e"/>
        <path id="Path_50" data-name="Path 50" d="M1367.283,848.721s-43.614-22.955-103.572-23.359S1190.791,854,1145.92,854s-67.8-20.847-106.693-24.945-56.944,12.149-56.944,12.149v55.505h385Z" transform="translate(-982.283 -779.632)" fill="#98a5c9"/>
      </g>
      <g id="Group_81" data-name="Group 81" transform="translate(192.137 436.046)">
        <path id="Path_65" data-name="Path 65" d="M1496.586,692.745s1.727-5.32-2.568-12.086c-1.165,1.238-3.715,10.9-3.715,10.9S1492.973,695.783,1496.586,692.745Z" transform="translate(-1461.652 -680.659)" fill="#c17110"/>
        <path id="Path_66" data-name="Path 66" d="M1422.286,757.623c4.328-3,8.786,1.315,9.6,5.391,0,0,1.3,9.548,5.365,14.5s3.43,7.729,1.865,12.261c-1.155,3.342-1.566,8.9-1.7,11.594a1.8,1.8,0,0,1-1.639,1.7l-6.091.554s-.579-3.367,2.384-4.727c2.134-1.163,3.288-11.074,2.284-13.464s-8.357-5.685-13.187-12.207S1417.959,760.62,1422.286,757.623Z" transform="translate(-1344.339 -692.652)" fill="#e09b41"/>
        <path id="Path_67" data-name="Path 67" d="M1510.865,728.28a9.433,9.433,0,0,1-8.581,1.693c-4.769-1.591-7.667-5.607-13.173-5.8s-7.8,1.467-8.338,2.862,4.619,2.775,4.619,2.775,2.913-.893,4.714.022,7.189,9.127,17.084,10.561,15.757-.191,15.683-4.116S1516.093,726.181,1510.865,728.28Z" transform="translate(-1479.538 -687.527)" fill="#e09b41"/>
        <path id="Path_68" data-name="Path 68" d="M1434.134,733.179c5.438-.885,9.061,2.491,14.049,3.124a8.655,8.655,0,0,0,5.758-1.331,22.184,22.184,0,0,1-1.1-14.736c1.049-3.649-.2-9.025-.2-9.025h0a34.091,34.091,0,0,0-.551-3.5c-.567-1.451-10.051-5.93-11.6-7.141-2.18-3.268-2.674-7.743-1.276-8.721s9.019,1.551,11.742,1.47,3.051-3.927,10.178-1.852,10.816,15.631,10.816,15.631c9.042,17.935,28.928,27.165,28.928,27.165,5.168,2.394,11,5.628,13.236,11.2a19.1,19.1,0,0,1,1.357,8.18,10.086,10.086,0,0,1-3.557,6.9c-1.487,1.428-4.185,3.319-4.1,5.655.113,3.163,5.526,11.656,6.194,14.473s-5.717,14.533-5.717,14.533l-8.23.419.079-2.357c.078-2.356,2.706-2.3,4.267-2.88s1.874-5.545,1.964-8.755-3.068-7.561-9.069-13.153-2.9-13.128-4.583-14.854c-1.431-1.466-18.852-4.139-29.2-9.3a39.387,39.387,0,0,1-8.494,1.249c-9.984.517-16.866-6.49-18.811-7.038s-4.628.9-4.628.9-5.327-.351-5.071-1.824S1428.7,734.065,1434.134,733.179Z" transform="translate(-1426.502 -682.268)" fill="#f2b15a"/>
        <path id="Path_69" data-name="Path 69" d="M1491.681,695.56s2.781-4.853-.035-12.356c-1.394.972-5.871,9.9-5.871,9.9S1487.521,697.792,1491.681,695.56Z" transform="translate(-1453.818 -681.061)" fill="#c17110"/>
        <path id="Path_70" data-name="Path 70" d="M1499.659,691.99c1.4-.979,9.019,1.551,11.742,1.47,0,0,3.267,3.882,2.115,6.4-.97,1.287-.78,2.187.6,3.518s1.4,4.7-1.572,4.473c-.568-1.451-10.051-5.93-11.6-7.141C1498.754,697.442,1498.261,692.967,1499.659,691.99Z" transform="translate(-1486.95 -682.412)" fill="#c17110"/>
        <path id="Path_71" data-name="Path 71" d="M1512.759,691.99c.5-.347,1.779-.249,3.344.013.663.661,1.219,1.463.858,2.077-.616,1.049-3.189,1.994-4.835,1.849C1511.8,694.087,1512,692.521,1512.759,691.99Z" transform="translate(-1500.05 -682.413)" fill="#3c2415"/>
        <path id="Path_72" data-name="Path 72" d="M1398.163,747.517s22.648-.585,22.875-28.076a53.285,53.285,0,0,1,2.936,9.827,15.269,15.269,0,0,1,.263,4.15c-.117,1.056-1.027,3.014-.242,3.977.729.893,2.829.023,3.754-.488a10.522,10.522,0,0,1-6.234,6.062,13.26,13.26,0,0,0,4.113.437,10.054,10.054,0,0,1-8.954,5.1,4.043,4.043,0,0,0,4.218,1.932,22.883,22.883,0,0,1-14.5,1.386,6.063,6.063,0,0,0,3.068,2.457,33.449,33.449,0,0,0-5.029-.426,8.076,8.076,0,0,1-4.709-1.582C1398.436,751.184,1397.286,748.956,1398.163,747.517Z" transform="translate(-1314.622 -686.782)" fill="#f2b15a"/>
        <g id="Group_78" data-name="Group 78" transform="translate(24.827 22.971)">
          <path id="Path_73" data-name="Path 73" d="M1479.056,719.5c13.95,0,18.978-8.412,19.192-8.78a1.857,1.857,0,0,0-3.209-1.869c-.192.321-4.59,7.368-17.1,6.916a1.856,1.856,0,1,0-.128,3.71Q1478.446,719.5,1479.056,719.5Z" transform="translate(-1476.022 -707.936)" fill="#a10e0d"/>
        </g>
        <path id="Path_74" data-name="Path 74" d="M1457.338,754.323c9.814-1.245,10.36,5.844,15.267,7.207s4.089,7.362,3.544,11.178S1480.7,785.4,1480.7,785.4h0a52.755,52.755,0,0,0-6.418-6.922c-6-5.592-2.9-13.128-4.584-14.854-1.431-1.466-18.852-4.139-29.2-9.3A61.819,61.819,0,0,0,1457.338,754.323Z" transform="translate(-1403.488 -692.266)" fill="#f7bd69" opacity="0.5"/>
      </g>
      <g id="Group_82" data-name="Group 82" transform="translate(-59 381.894)">
        <path id="Path_51" data-name="Path 51" d="M1376.727,827.779a9.484,9.484,0,0,0,7.171,7.8c6.656,1.9,9.606,5.211,9.538,6.732s-16.88-.57-24.677-2.471c-4.184-1.522-2.043-11.159-.393-13.7S1375.737,824.788,1376.727,827.779Z" transform="translate(-1275.076 -582.253)" fill="#3c2415"/>
        <path id="Path_52" data-name="Path 52" d="M1298.214,817.441s-1.41,9,2.646,10.189,8.112,2.521,8.563,4.672-10.817,1.927-14.647,1.251-10.577-12.355-11.028-15.51,6.886-6.741,9.192-6.612A5.538,5.538,0,0,1,1298.214,817.441Z" transform="translate(-1283.729 -583.648)" fill="#3c2415"/>
        <path id="Path_53" data-name="Path 53" d="M1397.747,775.065l-.2-2.29c-.118-1.58-.337-2.972-.554-4.373l-.322-2.117-.385-2.023c-.266-1.334-.5-2.724-.8-4.015-1.121-5.3-2.464-10.368-3.834-15.448-2.816-10.134-5.844-19.929-9.257-29.942l-16.328,6.814-25.9-3.639c-.789,10.146-1.851,20.6-3.2,30.7-.684,5.058-1.46,10.08-2.407,14.844-.476,2.355-1.013,4.673-1.578,6.614-.263.9-.6,1.861-.682,2.132-.053.257.386-.245.15.036-6.612,9.123-14.352,17.2-22.213,25.245-7.213,7.375-12.276,16.619-19.587,23.942l5.778,6.583q12.591-9.718,25.06-19.56l12.46-9.969c4.175-3.409,8.22-6.669,12.556-10.612l1.765-1.72.221-.216.354-.417.727-.909a17.6,17.6,0,0,0,1.11-1.609,39.583,39.583,0,0,0,2.648-5.028c1.325-2.982,2.319-5.716,3.255-8.437,1.828-5.409,3.348-10.682,4.772-15.954,1.183-4.423,2.284-8.809,3.343-13.2,1.773,3.924,3.508,7.866,5.16,11.785,1.879,4.544,3.742,9.116,5.317,13.617.433,1.14.755,2.232,1.137,3.352l.552,1.67.46,1.611c.318,1.083.64,2.172.826,3.117l.346,1.48c.1.463.106.76.181,1.151a14.454,14.454,0,0,1,.185,2.881c.019,1.09-.046,2.329-.064,3.49-.1,2.405-.234,4.857-.418,7.336-.359,4.954-.806,9.963-1.317,14.98-1.014,10.03.514,20.657-.766,30.678l8.362,1.644c2.592-9.923,5.06-19.817,7.4-29.826,1.17-5,2.282-10.032,3.323-15.14q.784-3.826,1.458-7.785c.2-1.369.439-2.654.61-4.1a32.283,32.283,0,0,0,.341-4.727C1397.781,776.839,1397.8,775.862,1397.747,775.065Z" transform="translate(-1283.005 -593.765)" fill="#545b6e"/>
        <path id="Path_54" data-name="Path 54" d="M1369.023,760.876l.047.108s.924-6.56,2.828-14.655c1.433-6.093,7.961-13.228,11.1-16.387-1.55-5.02-3.175-10.025-4.9-15.084l-16.328,6.814-25.9-3.639c-.789,10.146-1.85,20.6-3.2,30.7-.349,2.579-.724,5.145-1.131,7.676,11.333-10.543,28.865-15.911,28.865-15.911,1.773,3.924,3.508,7.866,5.161,11.785C1366.753,755.145,1367.922,758.017,1369.023,760.876Z" transform="translate(-1278.72 -593.765)" fill="#545b6e" opacity="0.5"/>
        <path id="Path_55" data-name="Path 55" d="M1464.192,626.11c-.354-.369-2.594,1.969-4.362,2.953.943-2.091,2.829-5.413,1.769-4.675s-5.541,4.306-6.721,5.906-1.826-.517-2.049-3.312c-.142-1.784-1.96,2.081-1.96,4.912a8.865,8.865,0,0,1-.994,4.288c-6.051,4.4-10.474,6.961-16.716,11.068-3.139,2.075-6.31,4.062-9.479,5.967a78.014,78.014,0,0,1-9.341,4.862l-1.016.36-.5.185-.279,0a4.528,4.528,0,0,0-.534.071l-1.036.042c-1.487.056-3.283.033-5.048-.011-2.84-.071-7.211-1.269-9.911-.536-2.552.693-3.038,4.216-2.778,6.607a18.737,18.737,0,0,0,.775,3.321c.628,2.1,1.338,6.005,3.666,6.959,2.4.983,6.932-.558,9.393-.988,2.013-.351,3.993-.7,6.247-1.256l1.758-.467c.677-.223,1.454-.542,2.158-.836l1.062-.467.767-.458,1.517-.925a89.825,89.825,0,0,0,9.6-7.666q4.35-3.947,8.456-8c5.284-5.2,8.734-8.863,13.622-14.148l.046.021s2.336-.984,4.88-1.969,6.3-3.814,7.007-4.922S1464.546,626.479,1464.192,626.11Z" transform="translate(-1272.264 -603.254)" fill="#ffe5d2"/>
        <path id="Path_56" data-name="Path 56" d="M1364.7,659.214a9.926,9.926,0,0,0-14.154-4.713c-2.622,1.527-5.233,3.076-7.856,4.659-2.924,1.765-5.842,3.584-8.789,5.526-.737.485-1.472.97-2.229,1.5-.747.514-1.5,1.033-2.3,1.644-.409.311-.75.546-1.21.919l-1.357,1.13c-.452.4-.937.946-1.385,1.423l-.659.742-.447.622a76.227,76.227,0,0,0-5.559,9.368c-1.582,3.052-3.086,6.093-4.528,9.147-2.9,6.105-5.633,12.453-8.3,18.63h0c-2.81,1.54-4.567,6.5-4.567,6.5s-.738,4.31.817,5.692c3.97,2.934,5.437,2.244,7.256,1.812s1.377-2.416,1.377-2.416-.432.777-2.677.518-2.157-1.844-2.157-1.844.691-1.954,1.208-3.077,1.381-1.468,2.707-.777c2.362,2.071,3.767,1.726,2.559.431s-2.362-5.066-2.362-5.066-.009-.051-.02-.109c3.829-5.27,7.741-10.513,11.738-15.616,2.031-2.608,4.1-5.168,6.193-7.653a64.206,64.206,0,0,1,6.253-6.667l.361-.324c.093-.055.163-.077.241-.119.169-.077.24-.156.454-.254l1.584-.7c.6-.273,1.307-.558,2.018-.842l2.165-.844c2.95-1.114,6.015-2.19,9.114-3.224,2.771-.926,5.575-1.837,8.386-2.728A9.906,9.906,0,0,0,1364.7,659.214Z" transform="translate(-1281.9 -600.23)" fill="#ffe5d2"/>
        <g id="Group_75" data-name="Group 75" transform="translate(200.634)">
          <ellipse id="Ellipse_15" data-name="Ellipse 15" cx="26.185" cy="6.163" rx="26.185" ry="6.163" transform="translate(0 16.498) rotate(-18.363)" fill="#545b6e"/>
          <path id="Path_57" data-name="Path 57" d="M1502.805,613.929c.478,1.443-4.6,4.428-11.347,6.667s-12.6,2.885-13.081,1.442,4.6-4.428,11.347-6.667S1502.326,612.486,1502.805,613.929Z" transform="translate(-1463.975 -604.419)" fill="#e69d42"/>
        </g>
        <path id="Path_58" data-name="Path 58" d="M1410.246,653.989c-10.57-.328-28.352-3.063-28.352-3.063-.027.056-.04.119-.066.177a17.438,17.438,0,0,0-1.923-.629c-11.085-2.1-19.5-1.514-25.183.454l-.01,0s-15.329,4.267-24.2,11.184c-1.307,3.026,3.45,15.475,8.089,18.279.867-.186,3.881-1.075,7.52-2.2.13,8.185-.268,17.293-3.08,24.792-6.009,16.025-12.019,23.7-8.68,28.043,21.031,7.678,47.405,5.007,46.951-2.671-3.459-12.018,4.068-24.9,8.047-32.863,2.481-4.963,5.832-12.149,6.908-19.389,6.807-.147,15.034-.717,16.915-2.556C1415.03,671.732,1412.112,654.938,1410.246,653.989Z" transform="translate(-1278.851 -600.648)" fill="#98a5c9"/>
        <path id="Path_59" data-name="Path 59" d="M1375.3,644.42s-2.4,5.39,1.693,9.3c2.74,2.616.312,6.222-2.261,6.593s-10.38-2.416-9.079-7.807a39.886,39.886,0,0,0,4.151-9.668Z" transform="translate(-1275.162 -601.31)" fill="#ffe5d2"/>
        <path id="Path_60" data-name="Path 60" d="M1370.366,618.1s8.935-1.159,12.168,7.826c1.772,7.321,4.243,7.524,4.992,9.882s-2.944,2.091-3.933,2.447,1.183,8.075-2.5,9.853-11.941,2.48-16.69-6.518S1357.834,620.931,1370.366,618.1Z" transform="translate(-1275.654 -603.906)" fill="#ffe5d2"/>
        <path id="Path_61" data-name="Path 61" d="M1384.677,619.449s1.45,4.8-5.948,7.459c-2.337.8-6.216,4.526-4.476,8.387s2.254,6.124,0,4.127-3.986-4.793-5.583-2,.266,5.325,2.53,5.458c2.13,1.065,1.2,4.6-1.729,5.1s-9.434-7.257-8.958-14.086C1362.412,627.307,1379.251,620.111,1384.677,619.449Z" transform="translate(-1275.687 -603.76)" fill="#3c2415"/>
        <g id="Group_76" data-name="Group 76" transform="translate(83.012 9.605)">
          <path id="Path_62" data-name="Path 62" d="M1360.683,634.252s14.868-8.133,21.159-12.718c-1.775-3.456-9.68-8.721-18.231-2.861S1360.683,634.252,1360.683,634.252Z" transform="translate(-1358.869 -613.722)" fill="#545b6e"/>
          <path id="Path_63" data-name="Path 63" d="M1379.82,621.754s10.244-5.8,11.536-7.1-2.632-1.551-12.678,5.525C1377.324,621.243,1379.061,622.186,1379.82,621.754Z" transform="translate(-1356.847 -613.942)" fill="#545b6e"/>
        </g>
        <path id="Path_64" data-name="Path 64" d="M1381.013,725.6a22.552,22.552,0,0,1-.794-4.4c-31.889-5.653-34.4-45.764-34.4-45.764.131,8.185-.268,17.293-3.08,24.792-6.009,16.025-12.019,23.7-8.68,28.043C1355.093,735.95,1381.467,733.279,1381.013,725.6Z" transform="translate(-1278.556 -597.895)" fill="#545b6e" opacity="0.5"/>
      </g>
    </g>
  </g>
</svg>
